<?xml version="1.0" encoding="UTF-8"?>
<svg xmlns="http://www.w3.org/2000/svg" viewBox="0 0 2047 2047" width="2047" height="2047">
  <g fill="#16A5E7" fill-rule="evenodd">
    <path d="M 1202 1165 L 1201 1166 L 1191 1166 L 1186 1168 L 1177 1169 L 1171 1172 L 1166 1173 L 1149 1181 L 1148 1183 L 1146 1183 L 1143 1186 L 1140 1187 L 1135 1191 L 1134 1193 L 1132 1194 L 1118 1208 L 1106 1226 L 1105 1230 L 1103 1232 L 1101 1239 L 1099 1241 L 1099 1243 L 1098 1244 L 1097 1251 L 1095 1254 L 1094 1266 L 1093 1267 L 1093 1272 L 1092 1273 L 1092 1291 L 1093 1292 L 1095 1309 L 1096 1310 L 1098 1320 L 1099 1321 L 1099 1323 L 1101 1325 L 1102 1330 L 1114 1351 L 1118 1355 L 1121 1360 L 1122 1360 L 1129 1368 L 1143 1379 L 1146 1380 L 1151 1384 L 1153 1384 L 1155 1386 L 1159 1387 L 1161 1389 L 1168 1391 L 1171 1393 L 1177 1394 L 1178 1395 L 1182 1395 L 1186 1397 L 1191 1397 L 1192 1398 L 1214 1399 L 1215 1398 L 1233 1397 L 1236 1395 L 1240 1395 L 1241 1394 L 1247 1393 L 1250 1391 L 1255 1390 L 1262 1386 L 1264 1386 L 1266 1384 L 1271 1382 L 1272 1380 L 1275 1379 L 1282 1373 L 1286 1371 L 1286 1370 L 1289 1368 L 1296 1360 L 1297 1360 L 1304 1351 L 1305 1348 L 1308 1345 L 1310 1340 L 1315 1333 L 1315 1331 L 1317 1328 L 1317 1326 L 1321 1317 L 1321 1314 L 1322 1313 L 1323 1306 L 1324 1305 L 1325 1294 L 1326 1293 L 1326 1271 L 1325 1270 L 1325 1266 L 1324 1265 L 1323 1254 L 1321 1250 L 1321 1247 L 1320 1246 L 1319 1241 L 1315 1233 L 1315 1231 L 1310 1224 L 1305 1214 L 1295 1203 L 1295 1202 L 1282 1190 L 1275 1186 L 1269 1181 L 1257 1175 L 1255 1175 L 1253 1173 L 1247 1172 L 1241 1169 L 1232 1168 L 1227 1166 Z M 1231 1234 L 1243 1234 L 1244 1235 L 1246 1235 L 1248 1237 L 1249 1237 L 1253 1241 L 1253 1242 L 1255 1245 L 1255 1248 L 1256 1249 L 1256 1272 L 1305 1272 L 1306 1273 L 1306 1291 L 1305 1292 L 1256 1292 L 1256 1316 L 1255 1317 L 1255 1320 L 1254 1321 L 1254 1323 L 1251 1326 L 1251 1327 L 1250 1328 L 1249 1328 L 1248 1329 L 1247 1329 L 1245 1331 L 1243 1331 L 1242 1332 L 1227 1332 L 1226 1331 L 1226 1314 L 1227 1313 L 1237 1313 L 1237 1253 L 1231 1253 L 1230 1252 L 1230 1235 Z M 1176 1234 L 1189 1234 L 1190 1235 L 1190 1252 L 1189 1253 L 1182 1253 L 1182 1313 L 1193 1313 L 1194 1314 L 1194 1331 L 1193 1332 L 1177 1332 L 1176 1331 L 1173 1331 L 1170 1328 L 1169 1328 L 1167 1326 L 1167 1325 L 1165 1323 L 1165 1322 L 1164 1321 L 1164 1318 L 1163 1317 L 1163 1292 L 1114 1292 L 1113 1291 L 1113 1273 L 1114 1272 L 1163 1272 L 1163 1248 L 1164 1247 L 1164 1245 L 1165 1244 L 1165 1243 L 1167 1241 L 1167 1240 L 1170 1237 L 1171 1237 L 1173 1235 L 1175 1235 Z"/>
    <path d="M 929 1182 L 929 1183 L 930 1184 L 930 1186 L 1085 1186 L 1085 1185 L 1086 1184 L 1086 1181 L 1085 1180 L 1084 1180 L 1082 1178 L 1081 1178 L 1080 1177 L 1079 1177 L 1078 1176 L 1077 1176 L 1076 1175 L 1075 1175 L 1073 1173 L 1072 1173 L 1071 1172 L 1069 1172 L 1067 1170 L 1066 1170 L 1065 1169 L 1064 1169 L 1063 1168 L 1062 1168 L 1060 1166 L 1059 1166 L 1058 1165 L 1057 1165 L 1056 1164 L 1055 1164 L 1053 1162 L 1051 1162 L 1050 1161 L 1050 1135 L 1047 1132 L 968 1132 L 965 1135 L 965 1160 L 963 1162 L 962 1162 L 960 1164 L 959 1164 L 958 1165 L 957 1165 L 956 1166 L 955 1166 L 953 1168 L 951 1168 L 950 1169 L 949 1169 L 947 1171 L 946 1171 L 945 1172 L 944 1172 L 943 1173 L 942 1173 L 940 1175 L 939 1175 L 938 1176 L 936 1176 L 935 1177 L 934 1177 L 934 1178 L 933 1179 L 931 1179 Z"/>
    <path d="M 901 1081 L 901 1086 L 931 1086 L 932 1085 L 932 1082 L 931 1081 L 931 1080 L 902 1080 Z"/>
    <path d="M 942 1047 L 938 1051 L 938 1052 L 937 1053 L 937 1055 L 936 1056 L 936 1077 L 937 1078 L 937 1079 L 938 1080 L 938 1082 L 939 1083 L 940 1083 L 941 1084 L 941 1085 L 942 1085 L 943 1086 L 961 1086 L 962 1085 L 963 1085 L 965 1083 L 965 1082 L 967 1080 L 967 1053 L 966 1052 L 966 1051 L 962 1047 L 960 1047 L 959 1046 L 945 1046 L 944 1047 Z"/>
    <path d="M 1013 1039 L 1009 1043 L 1009 1045 L 1008 1046 L 1008 1079 L 1009 1080 L 1009 1081 L 1010 1082 L 1010 1083 L 1011 1083 L 1014 1086 L 1032 1086 L 1033 1085 L 1034 1085 L 1037 1082 L 1037 1081 L 1038 1080 L 1038 1077 L 1039 1076 L 1039 1047 L 1038 1046 L 1038 1044 L 1037 1043 L 1037 1042 L 1036 1042 L 1035 1041 L 1035 1040 L 1034 1039 L 1032 1039 L 1031 1038 L 1016 1038 L 1015 1039 Z"/>
    <path d="M 982 1032 L 981 1033 L 979 1033 L 978 1034 L 977 1034 L 973 1038 L 973 1040 L 972 1041 L 972 1078 L 973 1079 L 973 1081 L 977 1085 L 978 1085 L 979 1086 L 996 1086 L 997 1085 L 998 1085 L 1001 1082 L 1001 1081 L 1002 1080 L 1002 1079 L 1003 1078 L 1003 1041 L 1002 1040 L 1002 1038 L 1001 1037 L 1001 1036 L 1000 1035 L 999 1035 L 998 1034 L 997 1034 L 996 1033 L 994 1033 L 993 1032 Z"/>
    <path d="M 1050 1016 L 1048 1018 L 1047 1018 L 1046 1019 L 1046 1020 L 1045 1021 L 1045 1022 L 1044 1023 L 1044 1024 L 1043 1025 L 1043 1076 L 1044 1077 L 1044 1079 L 1045 1080 L 1045 1082 L 1048 1085 L 1049 1085 L 1050 1086 L 1068 1086 L 1070 1084 L 1071 1084 L 1072 1083 L 1072 1082 L 1074 1080 L 1074 1022 L 1072 1020 L 1072 1019 L 1070 1017 L 1068 1017 L 1067 1016 Z"/>
    <path d="M 1087 988 L 1085 990 L 1084 990 L 1083 991 L 1082 991 L 1082 992 L 1080 994 L 1080 996 L 1079 997 L 1079 1078 L 1080 1079 L 1080 1080 L 1081 1081 L 1081 1082 L 1084 1085 L 1085 1085 L 1086 1086 L 1103 1086 L 1104 1085 L 1105 1085 L 1109 1081 L 1109 1079 L 1110 1078 L 1110 997 L 1109 996 L 1109 994 L 1108 993 L 1108 992 L 1107 991 L 1106 991 L 1104 989 L 1103 989 L 1102 988 Z"/>
    <path d="M 1133 925 L 1129 925 L 1126 927 L 1117 928 L 1115 930 L 1106 931 L 1105 932 L 1102 932 L 1099 934 L 1097 934 L 1099 938 L 1102 940 L 1099 942 L 1097 945 L 1093 947 L 1089 951 L 1080 957 L 1076 961 L 1066 968 L 1052 980 L 1043 986 L 1015 1009 L 1012 1009 L 1005 1005 L 1003 1005 L 989 998 L 984 997 L 982 995 L 975 993 L 973 991 L 971 991 L 965 988 L 965 989 L 963 990 L 954 999 L 953 999 L 953 1000 L 951 1001 L 944 1009 L 943 1009 L 933 1019 L 932 1019 L 929 1023 L 928 1023 L 914 1037 L 913 1037 L 903 1047 L 902 1047 L 902 1048 L 899 1050 L 896 1054 L 895 1054 L 881 1068 L 880 1068 L 879 1070 L 871 1077 L 871 1079 L 877 1086 L 880 1086 L 884 1082 L 885 1082 L 885 1081 L 888 1078 L 889 1078 L 889 1077 L 892 1075 L 894 1072 L 895 1072 L 904 1063 L 905 1063 L 905 1062 L 907 1061 L 914 1053 L 915 1053 L 925 1043 L 926 1043 L 968 1003 L 972 1005 L 974 1005 L 976 1007 L 981 1008 L 988 1012 L 993 1013 L 995 1015 L 997 1015 L 1013 1023 L 1017 1023 L 1025 1016 L 1033 1011 L 1034 1009 L 1038 1007 L 1039 1005 L 1056 993 L 1058 990 L 1061 989 L 1062 987 L 1070 982 L 1074 978 L 1075 978 L 1076 976 L 1080 974 L 1081 972 L 1089 967 L 1090 965 L 1093 964 L 1095 961 L 1099 959 L 1107 952 L 1110 951 L 1114 955 L 1114 956 L 1116 957 L 1117 954 L 1119 952 L 1120 948 L 1126 939 L 1127 935 L 1129 933 Z"/>
    <path d="M 834 894 L 832 898 L 832 1108 L 835 1114 L 839 1118 L 846 1121 L 1168 1121 L 1174 1119 L 1179 1115 L 1182 1109 L 1182 897 L 1175 888 L 1165 885 L 849 885 L 841 887 Z M 1006 1103 L 1009 1103 L 1010 1104 L 1011 1104 L 1013 1106 L 1013 1108 L 1014 1109 L 1013 1110 L 1013 1112 L 1010 1115 L 1009 1115 L 1008 1116 L 1006 1116 L 1004 1114 L 1003 1114 L 1001 1112 L 1001 1107 L 1004 1104 L 1005 1104 Z M 856 910 L 857 909 L 1158 909 L 1159 910 L 1159 1096 L 1158 1097 L 857 1097 L 856 1096 Z"/>
    <path d="M 964 612 L 954 623 L 954 658 L 940 672 L 855 696 L 823 661 L 809 661 L 732 719 L 732 730 L 752 757 L 754 770 L 701 844 L 689 851 L 653 841 L 638 846 L 609 942 L 616 950 L 649 961 L 657 971 L 657 1064 L 649 1075 L 614 1087 L 608 1101 L 637 1189 L 654 1195 L 679 1186 L 694 1187 L 758 1269 L 730 1314 L 765 1345 L 816 1377 L 827 1371 L 847 1344 L 862 1341 L 943 1368 L 951 1379 L 951 1415 L 959 1424 L 1056 1426 L 1066 1415 L 1068 1376 L 1077 1367 L 1093 1363 L 1075 1330 L 1068 1297 L 980 1302 L 894 1279 L 817 1228 L 776 1181 L 753 1142 L 731 1079 L 726 992 L 742 921 L 780 851 L 810 816 L 858 778 L 898 757 L 947 741 L 1003 734 L 1057 738 L 1111 753 L 1156 775 L 1196 804 L 1236 847 L 1264 891 L 1283 940 L 1292 984 L 1294 1034 L 1283 1098 L 1262 1150 L 1294 1168 L 1320 1194 L 1335 1191 L 1362 1201 L 1379 1196 L 1409 1108 L 1404 1094 L 1372 1083 L 1362 1073 L 1362 980 L 1370 968 L 1407 955 L 1412 941 L 1383 852 L 1367 847 L 1329 856 L 1272 781 L 1271 763 L 1293 731 L 1287 717 L 1213 664 L 1201 665 L 1168 699 L 1081 672 L 1070 660 L 1069 622 L 1059 612 Z"/>
  </g>
</svg>
