<?xml version="1.0" encoding="UTF-8"?>
<svg xmlns="http://www.w3.org/2000/svg" viewBox="0 0 1974 1728" width="1974" height="1728">
  <g fill="#0F172A" fill-rule="evenodd">
    <path d="M 1304 1026 L 1269 1031 L 1231 1044 L 1197 1064 L 1183 1075 L 1163 1095 L 1149 1113 L 1138 1131 L 1123 1166 L 1115 1203 L 1114 1243 L 1121 1283 L 1132 1313 L 1152 1347 L 1164 1362 L 1182 1380 L 1214 1403 L 1246 1418 L 1286 1428 L 1325 1430 L 1362 1425 L 1400 1412 L 1433 1393 L 1460 1370 L 1483 1342 L 1502 1307 L 1509 1288 L 1515 1263 L 1518 1226 L 1516 1199 L 1513 1183 L 1500 1144 L 1481 1111 L 1454 1080 L 1421 1055 L 1383 1037 L 1347 1028 L 1328 1026 Z M 1352 1145 L 1375 1145 L 1385 1150 L 1391 1156 L 1391 1157 L 1393 1159 L 1395 1163 L 1396 1169 L 1397 1170 L 1397 1211 L 1482 1211 L 1483 1212 L 1483 1244 L 1482 1245 L 1397 1245 L 1397 1288 L 1396 1289 L 1396 1292 L 1395 1293 L 1395 1295 L 1392 1301 L 1389 1304 L 1389 1305 L 1386 1308 L 1385 1308 L 1380 1312 L 1378 1312 L 1374 1314 L 1345 1314 L 1344 1313 L 1344 1282 L 1345 1281 L 1364 1281 L 1364 1178 L 1352 1178 L 1351 1177 L 1351 1146 Z M 1149 1212 L 1150 1211 L 1236 1211 L 1236 1169 L 1237 1168 L 1238 1163 L 1242 1156 L 1249 1149 L 1255 1146 L 1257 1146 L 1258 1145 L 1281 1145 L 1282 1146 L 1282 1177 L 1281 1178 L 1269 1178 L 1269 1281 L 1288 1281 L 1289 1282 L 1289 1313 L 1288 1314 L 1259 1314 L 1258 1313 L 1255 1313 L 1251 1311 L 1243 1304 L 1243 1303 L 1240 1300 L 1238 1296 L 1237 1290 L 1236 1289 L 1236 1245 L 1150 1245 L 1149 1244 Z"/>
    <path d="M 831 1055 L 832 1060 L 834 1062 L 1099 1062 L 1102 1058 L 1102 1054 L 1100 1051 L 1084 1043 L 1082 1041 L 1071 1036 L 1069 1034 L 1060 1030 L 1058 1028 L 1047 1023 L 1040 1018 L 1040 974 L 1039 972 L 1035 969 L 898 969 L 893 975 L 893 1018 L 888 1022 L 877 1027 L 875 1029 L 866 1033 L 864 1035 L 853 1040 L 851 1042 L 833 1051 Z"/>
    <path d="M 783 880 L 783 888 L 784 889 L 834 889 L 835 888 L 835 887 L 836 886 L 836 882 L 835 881 L 835 880 L 833 878 L 786 878 L 785 879 L 784 879 Z"/>
    <path d="M 856 821 L 855 822 L 854 822 L 853 823 L 852 823 L 847 828 L 847 829 L 846 830 L 846 831 L 845 832 L 845 835 L 844 836 L 844 873 L 845 874 L 845 877 L 846 878 L 846 879 L 847 880 L 847 881 L 852 886 L 853 886 L 854 887 L 855 887 L 856 888 L 858 888 L 859 889 L 883 889 L 884 888 L 886 888 L 887 887 L 888 887 L 890 885 L 891 885 L 894 882 L 894 881 L 895 880 L 895 879 L 896 878 L 896 877 L 897 876 L 897 834 L 896 833 L 896 831 L 895 830 L 895 829 L 893 827 L 893 826 L 891 824 L 890 824 L 888 822 L 886 822 L 885 821 L 883 821 L 882 820 L 860 820 L 859 821 Z"/>
    <path d="M 981 806 L 980 807 L 978 807 L 976 809 L 975 809 L 971 813 L 971 814 L 969 816 L 969 818 L 968 819 L 968 876 L 969 877 L 969 878 L 970 879 L 970 880 L 971 881 L 971 882 L 974 885 L 975 885 L 977 887 L 978 887 L 979 888 L 981 888 L 982 889 L 1006 889 L 1007 888 L 1009 888 L 1010 887 L 1011 887 L 1012 886 L 1013 886 L 1018 881 L 1018 880 L 1019 879 L 1019 878 L 1020 877 L 1020 874 L 1021 873 L 1021 822 L 1020 821 L 1020 818 L 1019 817 L 1019 816 L 1018 815 L 1018 814 L 1012 808 L 1011 808 L 1010 807 L 1008 807 L 1007 806 Z"/>
    <path d="M 916 798 L 914 800 L 913 800 L 909 804 L 909 805 L 908 806 L 908 807 L 907 808 L 907 810 L 906 811 L 906 875 L 907 876 L 907 878 L 908 879 L 908 880 L 911 883 L 911 884 L 912 884 L 915 887 L 916 887 L 917 888 L 919 888 L 920 889 L 944 889 L 945 888 L 948 888 L 949 887 L 950 887 L 957 880 L 957 879 L 958 878 L 958 875 L 959 874 L 959 811 L 958 810 L 958 808 L 957 807 L 957 806 L 956 805 L 956 804 L 952 800 L 951 800 L 949 798 L 947 798 L 946 797 L 919 797 L 918 798 Z"/>
    <path d="M 1045 767 L 1044 768 L 1042 768 L 1041 769 L 1039 769 L 1037 771 L 1036 771 L 1033 774 L 1033 775 L 1031 777 L 1031 779 L 1030 780 L 1030 783 L 1029 784 L 1029 872 L 1030 873 L 1030 877 L 1031 878 L 1031 879 L 1032 880 L 1032 881 L 1037 886 L 1038 886 L 1039 887 L 1040 887 L 1041 888 L 1043 888 L 1044 889 L 1068 889 L 1069 888 L 1071 888 L 1072 887 L 1073 887 L 1074 886 L 1075 886 L 1079 882 L 1079 881 L 1080 880 L 1080 879 L 1081 878 L 1081 877 L 1082 876 L 1082 780 L 1081 779 L 1081 778 L 1080 777 L 1080 776 L 1078 774 L 1078 773 L 1077 772 L 1076 772 L 1074 770 L 1073 770 L 1072 769 L 1071 769 L 1070 768 L 1067 768 L 1066 767 Z"/>
    <path d="M 1105 720 L 1104 721 L 1102 721 L 1101 722 L 1100 722 L 1097 725 L 1096 725 L 1096 726 L 1093 729 L 1093 730 L 1092 731 L 1092 734 L 1091 735 L 1091 874 L 1092 875 L 1092 877 L 1093 878 L 1094 881 L 1100 887 L 1101 887 L 1102 888 L 1105 888 L 1106 889 L 1130 889 L 1131 888 L 1133 888 L 1134 887 L 1135 887 L 1137 885 L 1138 885 L 1142 880 L 1142 879 L 1143 878 L 1143 876 L 1144 875 L 1144 734 L 1143 733 L 1143 731 L 1142 730 L 1142 729 L 1140 727 L 1140 726 L 1138 724 L 1137 724 L 1135 722 L 1134 722 L 1133 721 L 1131 721 L 1130 720 Z"/>
    <path d="M 1184 610 L 1123 625 L 1122 627 L 1130 636 L 1126 641 L 979 756 L 976 756 L 894 720 L 732 872 L 731 877 L 741 888 L 745 889 L 898 745 L 901 745 L 979 780 L 982 780 L 1144 653 L 1154 665 Z"/>
    <path d="M 668 555 L 663 569 L 663 921 L 667 934 L 679 946 L 687 949 L 1245 949 L 1258 943 L 1265 935 L 1269 925 L 1269 566 L 1264 554 L 1254 545 L 1246 542 L 687 542 L 677 546 Z M 963 918 L 970 918 L 971 919 L 972 919 L 976 923 L 976 924 L 977 925 L 977 927 L 978 928 L 978 930 L 977 931 L 977 933 L 976 934 L 976 935 L 973 938 L 972 938 L 971 939 L 970 939 L 969 940 L 963 940 L 962 939 L 961 939 L 956 934 L 956 932 L 955 931 L 955 926 L 956 925 L 956 924 L 961 919 L 962 919 Z M 704 583 L 1228 582 L 1229 908 L 705 909 Z"/>
    <path d="M 893 69 L 875 87 L 874 149 L 850 172 L 710 215 L 692 209 L 648 154 L 618 158 L 492 252 L 491 273 L 524 319 L 528 342 L 437 470 L 417 482 L 350 464 L 327 475 L 277 634 L 286 651 L 344 671 L 360 689 L 362 842 L 344 871 L 286 891 L 276 915 L 328 1069 L 352 1078 L 407 1060 L 427 1065 L 535 1204 L 489 1270 L 497 1300 L 627 1391 L 649 1387 L 680 1344 L 704 1329 L 851 1374 L 869 1394 L 870 1458 L 885 1474 L 1051 1477 L 1068 1458 L 1073 1388 L 1114 1368 L 1085 1314 L 1071 1254 L 1000 1264 L 901 1260 L 825 1243 L 739 1207 L 667 1160 L 604 1101 L 522 976 L 486 862 L 480 726 L 511 595 L 573 482 L 628 419 L 708 356 L 788 315 L 862 292 L 962 280 L 1047 286 L 1134 308 L 1216 346 L 1293 401 L 1360 472 L 1410 551 L 1442 631 L 1460 721 L 1461 814 L 1444 907 L 1407 1000 L 1459 1028 L 1508 1075 L 1530 1070 L 1588 1089 L 1612 1073 L 1661 916 L 1650 901 L 1595 882 L 1580 865 L 1580 706 L 1596 683 L 1656 663 L 1666 637 L 1617 485 L 1592 475 L 1539 492 L 1519 488 L 1424 360 L 1421 334 L 1460 274 L 1442 245 L 1320 158 L 1301 161 L 1246 219 L 1094 172 L 1075 152 L 1073 86 L 1056 69 Z"/>
  </g>
</svg>
