<?xml version="1.0" encoding="UTF-8"?>
<svg xmlns="http://www.w3.org/2000/svg" width="1391" height="1409" viewBox="0 0 1391 1409" fill="none">
  <defs>
    <linearGradient id="blueGradient" x1="695.5" y1="0" x2="695.5" y2="1409" gradientUnits="userSpaceOnUse">
      <stop offset="0%" stop-color="#14B4E5"/>
      <stop offset="52%" stop-color="#1898D5"/>
      <stop offset="100%" stop-color="#1A81C3"/>
    </linearGradient>
  </defs>
<path d="M 1028 957 L 1027 958 L 1016 958 L 1015 959 L 1009 959 L 1008 960 L 1003 960 L 1002 961 L 998 961 L 997 962 L 993 962 L 992 963 L 989 963 L 988 964 L 986 964 L 985 965 L 982 965 L 981 966 L 979 966 L 978 967 L 976 967 L 975 968 L 973 968 L 972 969 L 970 969 L 969 970 L 967 970 L 966 971 L 965 971 L 964 972 L 962 972 L 961 973 L 960 973 L 959 974 L 958 974 L 957 975 L 955 975 L 954 976 L 953 976 L 952 977 L 951 977 L 950 978 L 949 978 L 948 979 L 947 979 L 946 980 L 945 980 L 943 982 L 942 982 L 941 983 L 940 983 L 939 984 L 938 984 L 937 985 L 936 985 L 934 987 L 933 987 L 931 989 L 930 989 L 928 991 L 927 991 L 925 993 L 924 993 L 922 995 L 921 995 L 918 998 L 917 998 L 914 1001 L 913 1001 L 908 1006 L 907 1006 L 887 1026 L 887 1027 L 882 1032 L 882 1033 L 879 1036 L 879 1037 L 876 1040 L 876 1041 L 873 1044 L 873 1045 L 871 1047 L 871 1048 L 869 1050 L 869 1051 L 868 1052 L 868 1053 L 866 1055 L 866 1056 L 865 1057 L 865 1058 L 864 1059 L 864 1060 L 862 1062 L 862 1063 L 861 1064 L 861 1065 L 860 1066 L 860 1067 L 859 1068 L 859 1069 L 858 1070 L 858 1071 L 857 1072 L 857 1073 L 856 1074 L 856 1075 L 855 1076 L 855 1078 L 854 1079 L 854 1080 L 853 1081 L 853 1082 L 852 1083 L 852 1085 L 851 1086 L 851 1088 L 850 1089 L 850 1090 L 849 1091 L 849 1093 L 848 1094 L 848 1096 L 847 1097 L 847 1100 L 846 1101 L 846 1103 L 845 1104 L 845 1107 L 844 1108 L 844 1111 L 843 1112 L 843 1115 L 842 1116 L 842 1120 L 841 1121 L 841 1126 L 840 1127 L 840 1133 L 839 1134 L 839 1143 L 838 1144 L 838 1174 L 839 1175 L 839 1184 L 840 1185 L 840 1191 L 841 1192 L 841 1197 L 842 1198 L 842 1202 L 843 1203 L 843 1206 L 844 1207 L 844 1210 L 845 1211 L 845 1214 L 846 1215 L 846 1217 L 847 1218 L 847 1221 L 848 1222 L 848 1224 L 849 1225 L 849 1226 L 850 1227 L 850 1229 L 851 1230 L 851 1232 L 852 1233 L 852 1234 L 853 1235 L 853 1237 L 854 1238 L 854 1239 L 855 1240 L 855 1241 L 856 1242 L 856 1244 L 857 1245 L 857 1246 L 858 1247 L 858 1248 L 859 1249 L 859 1250 L 860 1251 L 860 1252 L 861 1253 L 861 1254 L 862 1255 L 862 1256 L 864 1258 L 864 1259 L 865 1260 L 865 1261 L 866 1262 L 866 1263 L 868 1265 L 868 1266 L 870 1268 L 870 1269 L 872 1271 L 872 1272 L 874 1274 L 874 1275 L 876 1277 L 876 1278 L 879 1281 L 879 1282 L 883 1286 L 883 1287 L 888 1292 L 888 1293 L 906 1311 L 907 1311 L 912 1316 L 913 1316 L 917 1320 L 918 1320 L 920 1322 L 921 1322 L 924 1325 L 925 1325 L 927 1327 L 928 1327 L 930 1329 L 931 1329 L 933 1331 L 934 1331 L 935 1332 L 936 1332 L 938 1334 L 939 1334 L 940 1335 L 941 1335 L 942 1336 L 943 1336 L 944 1337 L 945 1337 L 946 1338 L 947 1338 L 948 1339 L 949 1339 L 950 1340 L 951 1340 L 952 1341 L 953 1341 L 954 1342 L 955 1342 L 956 1343 L 957 1343 L 958 1344 L 959 1344 L 960 1345 L 962 1345 L 963 1346 L 964 1346 L 965 1347 L 967 1347 L 968 1348 L 969 1348 L 970 1349 L 972 1349 L 973 1350 L 975 1350 L 976 1351 L 978 1351 L 979 1352 L 982 1352 L 983 1353 L 985 1353 L 986 1354 L 989 1354 L 990 1355 L 993 1355 L 994 1356 L 997 1356 L 998 1357 L 1003 1357 L 1004 1358 L 1009 1358 L 1010 1359 L 1016 1359 L 1017 1360 L 1029 1360 L 1030 1361 L 1049 1361 L 1050 1360 L 1062 1360 L 1063 1359 L 1070 1359 L 1071 1358 L 1076 1358 L 1077 1357 L 1081 1357 L 1082 1356 L 1086 1356 L 1087 1355 L 1090 1355 L 1091 1354 L 1093 1354 L 1094 1353 L 1097 1353 L 1098 1352 L 1100 1352 L 1101 1351 L 1103 1351 L 1104 1350 L 1106 1350 L 1107 1349 L 1109 1349 L 1110 1348 L 1112 1348 L 1113 1347 L 1114 1347 L 1115 1346 L 1117 1346 L 1118 1345 L 1119 1345 L 1120 1344 L 1121 1344 L 1122 1343 L 1124 1343 L 1125 1342 L 1126 1342 L 1127 1341 L 1128 1341 L 1129 1340 L 1130 1340 L 1131 1339 L 1132 1339 L 1133 1338 L 1134 1338 L 1135 1337 L 1136 1337 L 1138 1335 L 1139 1335 L 1140 1334 L 1141 1334 L 1142 1333 L 1143 1333 L 1145 1331 L 1146 1331 L 1147 1330 L 1148 1330 L 1150 1328 L 1151 1328 L 1153 1326 L 1154 1326 L 1156 1324 L 1157 1324 L 1160 1321 L 1161 1321 L 1164 1318 L 1165 1318 L 1170 1313 L 1171 1313 L 1180 1304 L 1181 1304 L 1184 1301 L 1184 1300 L 1194 1290 L 1194 1289 L 1198 1285 L 1198 1284 L 1202 1280 L 1202 1279 L 1204 1277 L 1204 1276 L 1207 1273 L 1207 1272 L 1209 1270 L 1209 1269 L 1210 1268 L 1210 1267 L 1212 1265 L 1212 1264 L 1214 1262 L 1214 1261 L 1215 1260 L 1215 1259 L 1216 1258 L 1216 1257 L 1217 1256 L 1217 1255 L 1219 1253 L 1219 1252 L 1220 1251 L 1220 1250 L 1221 1249 L 1221 1248 L 1222 1247 L 1222 1246 L 1223 1245 L 1223 1243 L 1224 1242 L 1224 1241 L 1225 1240 L 1225 1239 L 1226 1238 L 1226 1236 L 1227 1235 L 1227 1234 L 1228 1233 L 1228 1231 L 1229 1230 L 1229 1229 L 1230 1228 L 1230 1226 L 1231 1225 L 1231 1223 L 1232 1222 L 1232 1220 L 1233 1219 L 1233 1216 L 1234 1215 L 1234 1213 L 1235 1212 L 1235 1209 L 1236 1208 L 1236 1205 L 1237 1204 L 1237 1200 L 1238 1199 L 1238 1195 L 1239 1194 L 1239 1188 L 1240 1187 L 1240 1180 L 1241 1179 L 1241 1161 L 1242 1160 L 1242 1157 L 1241 1156 L 1241 1139 L 1240 1138 L 1240 1130 L 1239 1129 L 1239 1124 L 1238 1123 L 1238 1119 L 1237 1118 L 1237 1114 L 1236 1113 L 1236 1110 L 1235 1109 L 1235 1106 L 1234 1105 L 1234 1102 L 1233 1101 L 1233 1099 L 1232 1098 L 1232 1096 L 1231 1095 L 1231 1093 L 1230 1092 L 1230 1090 L 1229 1089 L 1229 1087 L 1228 1086 L 1228 1085 L 1227 1084 L 1227 1082 L 1226 1081 L 1226 1080 L 1225 1079 L 1225 1078 L 1224 1077 L 1224 1075 L 1223 1074 L 1223 1073 L 1222 1072 L 1222 1071 L 1221 1070 L 1221 1069 L 1220 1068 L 1220 1067 L 1219 1066 L 1219 1065 L 1218 1064 L 1218 1063 L 1216 1061 L 1216 1060 L 1215 1059 L 1215 1058 L 1214 1057 L 1214 1056 L 1212 1054 L 1212 1053 L 1211 1052 L 1211 1051 L 1209 1049 L 1209 1048 L 1207 1046 L 1207 1045 L 1205 1043 L 1205 1042 L 1202 1039 L 1202 1038 L 1199 1035 L 1199 1034 L 1195 1030 L 1195 1029 L 1187 1021 L 1187 1020 L 1178 1011 L 1177 1011 L 1170 1004 L 1169 1004 L 1165 1000 L 1164 1000 L 1161 997 L 1160 997 L 1157 994 L 1156 994 L 1154 992 L 1153 992 L 1151 990 L 1150 990 L 1148 988 L 1147 988 L 1145 986 L 1144 986 L 1143 985 L 1142 985 L 1140 983 L 1139 983 L 1138 982 L 1137 982 L 1136 981 L 1135 981 L 1134 980 L 1133 980 L 1132 979 L 1131 979 L 1130 978 L 1129 978 L 1128 977 L 1127 977 L 1126 976 L 1125 976 L 1124 975 L 1123 975 L 1122 974 L 1120 974 L 1119 973 L 1118 973 L 1117 972 L 1116 972 L 1115 971 L 1113 971 L 1112 970 L 1110 970 L 1109 969 L 1108 969 L 1107 968 L 1105 968 L 1104 967 L 1102 967 L 1101 966 L 1098 966 L 1097 965 L 1095 965 L 1094 964 L 1091 964 L 1090 963 L 1087 963 L 1086 962 L 1083 962 L 1082 961 L 1078 961 L 1077 960 L 1072 960 L 1071 959 L 1064 959 L 1063 958 L 1053 958 L 1052 957 Z M 1076 1076 L 1099 1076 L 1100 1077 L 1102 1077 L 1103 1078 L 1104 1078 L 1105 1079 L 1106 1079 L 1108 1081 L 1109 1081 L 1115 1087 L 1115 1088 L 1117 1090 L 1117 1091 L 1118 1092 L 1118 1093 L 1119 1094 L 1119 1096 L 1120 1097 L 1120 1100 L 1121 1101 L 1121 1142 L 1206 1142 L 1207 1143 L 1207 1175 L 1206 1176 L 1121 1176 L 1121 1219 L 1120 1220 L 1120 1223 L 1119 1224 L 1119 1226 L 1118 1227 L 1118 1228 L 1117 1229 L 1117 1230 L 1116 1231 L 1116 1232 L 1113 1235 L 1113 1236 L 1110 1239 L 1109 1239 L 1107 1241 L 1106 1241 L 1104 1243 L 1102 1243 L 1101 1244 L 1099 1244 L 1098 1245 L 1069 1245 L 1068 1244 L 1068 1213 L 1069 1212 L 1088 1212 L 1088 1109 L 1076 1109 L 1075 1108 L 1075 1077 Z M 873 1143 L 874 1142 L 960 1142 L 960 1100 L 961 1099 L 961 1097 L 962 1096 L 962 1094 L 963 1093 L 963 1092 L 964 1091 L 964 1090 L 966 1088 L 966 1087 L 973 1080 L 974 1080 L 975 1079 L 976 1079 L 977 1078 L 978 1078 L 979 1077 L 981 1077 L 982 1076 L 1005 1076 L 1006 1077 L 1006 1108 L 1005 1109 L 993 1109 L 993 1212 L 1012 1212 L 1013 1213 L 1013 1244 L 1012 1245 L 983 1245 L 982 1244 L 979 1244 L 978 1243 L 977 1243 L 976 1242 L 975 1242 L 973 1240 L 972 1240 L 967 1235 L 967 1234 L 964 1231 L 964 1230 L 963 1229 L 963 1228 L 962 1227 L 962 1225 L 961 1224 L 961 1221 L 960 1220 L 960 1176 L 874 1176 L 873 1175 Z M 555 986 L 555 988 L 556 989 L 556 991 L 558 993 L 823 993 L 825 991 L 825 990 L 826 989 L 826 985 L 825 984 L 825 983 L 824 982 L 823 982 L 822 981 L 821 981 L 819 979 L 818 979 L 817 978 L 816 978 L 815 977 L 814 977 L 813 976 L 812 976 L 811 975 L 810 975 L 809 974 L 808 974 L 806 972 L 805 972 L 804 971 L 803 971 L 802 970 L 801 970 L 800 969 L 799 969 L 798 968 L 797 968 L 796 967 L 795 967 L 793 965 L 792 965 L 791 964 L 790 964 L 789 963 L 788 963 L 787 962 L 786 962 L 785 961 L 784 961 L 782 959 L 781 959 L 780 958 L 779 958 L 778 957 L 777 957 L 776 956 L 775 956 L 774 955 L 773 955 L 772 954 L 771 954 L 769 952 L 768 952 L 767 951 L 766 951 L 764 949 L 764 905 L 763 904 L 763 903 L 761 901 L 760 901 L 759 900 L 622 900 L 618 904 L 618 905 L 617 906 L 617 949 L 615 951 L 614 951 L 612 953 L 611 953 L 610 954 L 609 954 L 608 955 L 607 955 L 606 956 L 605 956 L 604 957 L 603 957 L 602 958 L 601 958 L 599 960 L 598 960 L 597 961 L 596 961 L 595 962 L 594 962 L 593 963 L 592 963 L 591 964 L 590 964 L 588 966 L 587 966 L 586 967 L 585 967 L 584 968 L 583 968 L 582 969 L 581 969 L 580 970 L 579 970 L 578 971 L 577 971 L 575 973 L 574 973 L 573 974 L 572 974 L 571 975 L 570 975 L 569 976 L 568 976 L 567 977 L 566 977 L 564 979 L 563 979 L 562 980 L 561 980 L 560 981 L 559 981 L 558 982 L 557 982 L 557 983 L 556 984 L 556 985 Z M 507 811 L 507 819 L 508 820 L 558 820 L 559 819 L 559 818 L 560 817 L 560 813 L 559 812 L 559 811 L 557 809 L 510 809 L 509 810 L 508 810 Z M 580 752 L 579 753 L 578 753 L 577 754 L 576 754 L 571 759 L 571 760 L 570 761 L 570 762 L 569 763 L 569 766 L 568 767 L 568 804 L 569 805 L 569 808 L 570 809 L 570 810 L 571 811 L 571 812 L 576 817 L 577 817 L 578 818 L 579 818 L 580 819 L 582 819 L 583 820 L 607 820 L 608 819 L 610 819 L 611 818 L 612 818 L 614 816 L 615 816 L 618 813 L 618 812 L 619 811 L 619 810 L 620 809 L 620 808 L 621 807 L 621 765 L 620 764 L 620 762 L 619 761 L 619 760 L 617 758 L 617 757 L 615 755 L 614 755 L 612 753 L 610 753 L 609 752 L 607 752 L 606 751 L 584 751 L 583 752 Z M 705 737 L 704 738 L 702 738 L 700 740 L 699 740 L 695 744 L 695 745 L 693 747 L 693 749 L 692 750 L 692 807 L 693 808 L 693 809 L 694 810 L 694 811 L 695 812 L 695 813 L 698 816 L 699 816 L 701 818 L 702 818 L 703 819 L 705 819 L 706 820 L 730 820 L 731 819 L 733 819 L 734 818 L 735 818 L 736 817 L 737 817 L 742 812 L 742 811 L 743 810 L 743 809 L 744 808 L 744 805 L 745 804 L 745 753 L 744 752 L 744 749 L 743 748 L 743 747 L 742 746 L 742 745 L 736 739 L 735 739 L 734 738 L 732 738 L 731 737 Z M 640 729 L 638 731 L 637 731 L 633 735 L 633 736 L 632 737 L 632 738 L 631 739 L 631 741 L 630 742 L 630 806 L 631 807 L 631 809 L 632 810 L 632 811 L 635 814 L 635 815 L 636 815 L 639 818 L 640 818 L 641 819 L 643 819 L 644 820 L 668 820 L 669 819 L 672 819 L 673 818 L 674 818 L 681 811 L 681 810 L 682 809 L 682 806 L 683 805 L 683 742 L 682 741 L 682 739 L 681 738 L 681 737 L 680 736 L 680 735 L 676 731 L 675 731 L 673 729 L 671 729 L 670 728 L 643 728 L 642 729 Z M 769 698 L 768 699 L 766 699 L 765 700 L 763 700 L 761 702 L 760 702 L 757 705 L 757 706 L 755 708 L 755 710 L 754 711 L 754 714 L 753 715 L 753 803 L 754 804 L 754 808 L 755 809 L 755 810 L 756 811 L 756 812 L 761 817 L 762 817 L 763 818 L 764 818 L 765 819 L 767 819 L 768 820 L 792 820 L 793 819 L 795 819 L 796 818 L 797 818 L 798 817 L 799 817 L 803 813 L 803 812 L 804 811 L 804 810 L 805 809 L 805 808 L 806 807 L 806 711 L 805 710 L 805 709 L 804 708 L 804 707 L 802 705 L 802 704 L 801 703 L 800 703 L 798 701 L 797 701 L 796 700 L 795 700 L 794 699 L 791 699 L 790 698 Z M 829 651 L 828 652 L 826 652 L 825 653 L 824 653 L 821 656 L 820 656 L 820 657 L 817 660 L 817 661 L 816 662 L 816 665 L 815 666 L 815 805 L 816 806 L 816 808 L 817 809 L 817 810 L 818 811 L 818 812 L 824 818 L 825 818 L 826 819 L 829 819 L 830 820 L 854 820 L 855 819 L 857 819 L 858 818 L 859 818 L 861 816 L 862 816 L 864 814 L 864 813 L 866 811 L 866 810 L 867 809 L 867 807 L 868 806 L 868 665 L 867 664 L 867 662 L 866 661 L 866 660 L 864 658 L 864 657 L 862 655 L 861 655 L 859 653 L 858 653 L 857 652 L 855 652 L 854 651 Z M 908 541 L 904 541 L 903 542 L 901 542 L 900 543 L 897 543 L 896 544 L 893 544 L 892 545 L 889 545 L 888 546 L 885 546 L 884 547 L 882 547 L 881 548 L 878 548 L 877 549 L 874 549 L 873 550 L 870 550 L 869 551 L 866 551 L 865 552 L 863 552 L 862 553 L 859 553 L 858 554 L 855 554 L 854 555 L 851 555 L 850 556 L 847 556 L 846 557 L 846 558 L 850 562 L 850 563 L 854 567 L 854 568 L 850 572 L 849 572 L 846 575 L 845 575 L 841 579 L 840 579 L 836 583 L 835 583 L 832 586 L 831 586 L 827 590 L 826 590 L 823 593 L 822 593 L 818 597 L 817 597 L 813 601 L 812 601 L 809 604 L 808 604 L 804 608 L 803 608 L 800 611 L 799 611 L 795 615 L 794 615 L 790 619 L 789 619 L 786 622 L 785 622 L 781 626 L 780 626 L 777 629 L 776 629 L 772 633 L 771 633 L 767 637 L 766 637 L 763 640 L 762 640 L 758 644 L 757 644 L 754 647 L 753 647 L 749 651 L 748 651 L 744 655 L 743 655 L 740 658 L 739 658 L 735 662 L 734 662 L 731 665 L 730 665 L 726 669 L 725 669 L 721 673 L 720 673 L 717 676 L 716 676 L 712 680 L 711 680 L 708 683 L 707 683 L 703 687 L 700 687 L 699 686 L 698 686 L 697 685 L 696 685 L 695 684 L 694 684 L 693 683 L 691 683 L 690 682 L 689 682 L 688 681 L 687 681 L 686 680 L 684 680 L 683 679 L 682 679 L 681 678 L 680 678 L 679 677 L 677 677 L 676 676 L 675 676 L 674 675 L 673 675 L 672 674 L 671 674 L 670 673 L 668 673 L 667 672 L 666 672 L 665 671 L 664 671 L 663 670 L 661 670 L 660 669 L 659 669 L 658 668 L 657 668 L 656 667 L 655 667 L 654 666 L 652 666 L 651 665 L 650 665 L 649 664 L 648 664 L 647 663 L 645 663 L 644 662 L 643 662 L 642 661 L 641 661 L 640 660 L 639 660 L 638 659 L 636 659 L 635 658 L 634 658 L 633 657 L 632 657 L 631 656 L 629 656 L 628 655 L 627 655 L 626 654 L 625 654 L 624 653 L 623 653 L 622 652 L 620 652 L 619 651 L 618 651 L 615 654 L 614 654 L 597 671 L 596 671 L 580 687 L 579 687 L 562 704 L 561 704 L 545 720 L 544 720 L 527 737 L 526 737 L 510 753 L 509 753 L 492 770 L 491 770 L 475 786 L 474 786 L 457 803 L 456 803 L 455 804 L 455 808 L 464 817 L 464 818 L 465 819 L 467 819 L 468 820 L 469 820 L 475 814 L 476 814 L 492 798 L 493 798 L 510 781 L 511 781 L 527 765 L 528 765 L 545 748 L 546 748 L 562 732 L 563 732 L 580 715 L 581 715 L 597 699 L 598 699 L 615 682 L 616 682 L 622 676 L 625 676 L 626 677 L 627 677 L 628 678 L 629 678 L 630 679 L 631 679 L 632 680 L 634 680 L 635 681 L 636 681 L 637 682 L 638 682 L 639 683 L 641 683 L 642 684 L 643 684 L 644 685 L 645 685 L 646 686 L 648 686 L 649 687 L 650 687 L 651 688 L 652 688 L 653 689 L 654 689 L 655 690 L 657 690 L 658 691 L 659 691 L 660 692 L 661 692 L 662 693 L 664 693 L 665 694 L 666 694 L 667 695 L 668 695 L 669 696 L 670 696 L 671 697 L 673 697 L 674 698 L 675 698 L 676 699 L 677 699 L 678 700 L 680 700 L 681 701 L 682 701 L 683 702 L 684 702 L 685 703 L 686 703 L 687 704 L 689 704 L 690 705 L 691 705 L 692 706 L 693 706 L 694 707 L 696 707 L 697 708 L 698 708 L 699 709 L 700 709 L 701 710 L 702 710 L 703 711 L 706 711 L 708 709 L 709 709 L 713 705 L 714 705 L 718 701 L 719 701 L 722 698 L 723 698 L 727 694 L 728 694 L 731 691 L 732 691 L 736 687 L 737 687 L 740 684 L 741 684 L 745 680 L 746 680 L 750 676 L 751 676 L 754 673 L 755 673 L 759 669 L 760 669 L 763 666 L 764 666 L 768 662 L 769 662 L 773 658 L 774 658 L 777 655 L 778 655 L 782 651 L 783 651 L 786 648 L 787 648 L 791 644 L 792 644 L 796 640 L 797 640 L 800 637 L 801 637 L 805 633 L 806 633 L 809 630 L 810 630 L 814 626 L 815 626 L 819 622 L 820 622 L 823 619 L 824 619 L 828 615 L 829 615 L 832 612 L 833 612 L 837 608 L 838 608 L 842 604 L 843 604 L 846 601 L 847 601 L 851 597 L 852 597 L 855 594 L 856 594 L 860 590 L 861 590 L 865 586 L 866 586 L 868 584 L 869 585 L 869 586 L 873 590 L 873 591 L 878 596 L 878 595 L 879 594 L 879 593 L 880 592 L 880 591 L 882 589 L 882 588 L 883 587 L 883 586 L 884 585 L 884 584 L 885 583 L 885 582 L 887 580 L 887 579 L 888 578 L 888 577 L 889 576 L 889 575 L 890 574 L 890 573 L 891 572 L 891 571 L 893 569 L 893 568 L 894 567 L 894 566 L 895 565 L 895 564 L 896 563 L 896 562 L 897 561 L 897 560 L 899 558 L 899 557 L 900 556 L 900 555 L 901 554 L 901 553 L 902 552 L 902 551 L 903 550 L 903 549 L 905 547 L 905 546 L 906 545 L 906 544 L 907 543 L 907 542 Z M 392 486 L 392 487 L 391 488 L 391 489 L 390 490 L 390 491 L 389 492 L 389 494 L 388 495 L 388 499 L 387 500 L 387 852 L 388 853 L 388 858 L 389 859 L 389 861 L 390 862 L 390 863 L 391 864 L 391 865 L 393 867 L 393 868 L 400 875 L 401 875 L 403 877 L 404 877 L 405 878 L 407 878 L 408 879 L 410 879 L 411 880 L 969 880 L 970 879 L 973 879 L 974 878 L 975 878 L 976 877 L 977 877 L 978 876 L 979 876 L 981 874 L 982 874 L 987 869 L 987 868 L 989 866 L 989 865 L 990 864 L 990 863 L 991 862 L 991 861 L 992 860 L 992 857 L 993 856 L 993 497 L 992 496 L 992 493 L 991 492 L 991 491 L 990 490 L 990 489 L 989 488 L 989 487 L 988 486 L 988 485 L 981 478 L 980 478 L 978 476 L 977 476 L 976 475 L 974 475 L 973 474 L 971 474 L 970 473 L 411 473 L 410 474 L 407 474 L 406 475 L 405 475 L 404 476 L 403 476 L 402 477 L 401 477 L 397 481 L 396 481 L 396 482 Z M 687 849 L 694 849 L 695 850 L 696 850 L 700 854 L 700 855 L 701 856 L 701 858 L 702 859 L 702 861 L 701 862 L 701 864 L 700 865 L 700 866 L 697 869 L 696 869 L 695 870 L 694 870 L 693 871 L 687 871 L 686 870 L 685 870 L 680 865 L 680 863 L 679 862 L 679 857 L 680 856 L 680 855 L 685 850 L 686 850 Z M 428 514 L 429 513 L 952 513 L 953 514 L 953 839 L 952 840 L 429 840 L 428 839 Z M 617 0 L 616 1 L 614 1 L 613 2 L 611 2 L 609 4 L 608 4 L 603 9 L 603 10 L 602 11 L 602 12 L 601 13 L 601 14 L 600 15 L 600 17 L 599 18 L 599 75 L 598 76 L 598 80 L 597 81 L 597 82 L 596 83 L 596 84 L 595 85 L 595 86 L 594 87 L 594 88 L 592 90 L 592 91 L 586 97 L 585 97 L 583 99 L 582 99 L 581 100 L 580 100 L 579 101 L 578 101 L 577 102 L 575 102 L 574 103 L 570 103 L 569 104 L 566 104 L 565 105 L 561 105 L 560 106 L 557 106 L 556 107 L 552 107 L 551 108 L 548 108 L 547 109 L 544 109 L 543 110 L 540 110 L 539 111 L 536 111 L 535 112 L 533 112 L 532 113 L 529 113 L 528 114 L 526 114 L 525 115 L 522 115 L 521 116 L 519 116 L 518 117 L 515 117 L 514 118 L 512 118 L 511 119 L 509 119 L 508 120 L 506 120 L 505 121 L 503 121 L 502 122 L 500 122 L 499 123 L 497 123 L 496 124 L 494 124 L 493 125 L 491 125 L 490 126 L 488 126 L 487 127 L 486 127 L 485 128 L 483 128 L 482 129 L 480 129 L 479 130 L 477 130 L 476 131 L 475 131 L 474 132 L 472 132 L 471 133 L 470 133 L 469 134 L 467 134 L 466 135 L 465 135 L 464 136 L 462 136 L 461 137 L 460 137 L 459 138 L 457 138 L 456 139 L 455 139 L 454 140 L 453 140 L 452 141 L 450 141 L 449 142 L 448 142 L 447 143 L 446 143 L 445 144 L 442 144 L 441 145 L 436 145 L 435 146 L 434 146 L 433 145 L 427 145 L 426 144 L 424 144 L 423 143 L 422 143 L 421 142 L 420 142 L 419 141 L 418 141 L 417 140 L 416 140 L 407 131 L 407 130 L 404 127 L 404 126 L 402 124 L 402 123 L 399 120 L 399 119 L 396 116 L 396 115 L 394 113 L 394 112 L 391 109 L 391 108 L 388 105 L 388 104 L 386 102 L 386 101 L 383 98 L 383 97 L 380 94 L 380 93 L 378 91 L 378 90 L 376 88 L 375 88 L 372 85 L 371 85 L 370 84 L 368 84 L 367 83 L 363 83 L 362 82 L 357 82 L 356 83 L 353 83 L 352 84 L 350 84 L 349 85 L 348 85 L 346 87 L 345 87 L 343 89 L 342 89 L 339 92 L 338 92 L 335 95 L 334 95 L 332 97 L 331 97 L 328 100 L 327 100 L 324 103 L 323 103 L 321 105 L 320 105 L 317 108 L 316 108 L 314 110 L 313 110 L 310 113 L 309 113 L 306 116 L 305 116 L 303 118 L 302 118 L 299 121 L 298 121 L 295 124 L 294 124 L 292 126 L 291 126 L 288 129 L 287 129 L 285 131 L 284 131 L 281 134 L 280 134 L 277 137 L 276 137 L 274 139 L 273 139 L 270 142 L 269 142 L 266 145 L 265 145 L 263 147 L 262 147 L 259 150 L 258 150 L 256 152 L 255 152 L 252 155 L 251 155 L 248 158 L 247 158 L 245 160 L 244 160 L 241 163 L 240 163 L 237 166 L 236 166 L 234 168 L 233 168 L 230 171 L 229 171 L 227 173 L 226 173 L 223 176 L 222 176 L 218 180 L 218 181 L 216 183 L 216 185 L 215 186 L 215 187 L 214 188 L 214 201 L 215 202 L 215 204 L 216 205 L 216 206 L 218 208 L 218 209 L 220 211 L 220 212 L 223 215 L 223 216 L 225 218 L 225 219 L 228 222 L 228 223 L 231 226 L 231 227 L 233 229 L 233 230 L 236 233 L 236 234 L 239 237 L 239 238 L 241 240 L 241 241 L 244 244 L 244 245 L 246 247 L 246 248 L 248 250 L 248 251 L 249 252 L 249 253 L 250 254 L 250 255 L 251 256 L 251 259 L 252 260 L 252 273 L 251 274 L 251 276 L 250 277 L 250 279 L 249 280 L 249 281 L 248 282 L 248 283 L 245 286 L 245 287 L 237 295 L 237 296 L 230 303 L 230 304 L 224 310 L 224 311 L 220 315 L 220 316 L 215 321 L 215 322 L 212 325 L 212 326 L 208 330 L 208 331 L 205 334 L 205 335 L 202 338 L 202 339 L 199 342 L 199 343 L 197 345 L 197 346 L 194 349 L 194 350 L 192 352 L 192 353 L 190 355 L 190 356 L 187 359 L 187 360 L 185 362 L 185 363 L 183 365 L 183 366 L 181 368 L 181 369 L 180 370 L 180 371 L 178 373 L 178 374 L 176 376 L 176 377 L 174 379 L 174 380 L 173 381 L 173 382 L 171 384 L 171 385 L 170 386 L 170 387 L 168 389 L 168 390 L 167 391 L 167 392 L 165 394 L 165 395 L 164 396 L 164 397 L 161 400 L 161 401 L 156 406 L 155 406 L 153 408 L 152 408 L 150 410 L 148 410 L 147 411 L 146 411 L 145 412 L 142 412 L 141 413 L 129 413 L 128 412 L 126 412 L 125 411 L 123 411 L 122 410 L 120 410 L 119 409 L 116 409 L 115 408 L 113 408 L 112 407 L 110 407 L 109 406 L 107 406 L 106 405 L 104 405 L 103 404 L 101 404 L 100 403 L 98 403 L 97 402 L 95 402 L 94 401 L 92 401 L 91 400 L 89 400 L 88 399 L 86 399 L 85 398 L 82 398 L 81 397 L 79 397 L 78 396 L 75 396 L 74 395 L 69 395 L 68 396 L 64 396 L 63 397 L 62 397 L 61 398 L 60 398 L 59 399 L 58 399 L 51 406 L 51 407 L 50 408 L 50 409 L 49 410 L 49 413 L 48 414 L 48 416 L 47 417 L 47 419 L 46 420 L 46 422 L 45 423 L 45 425 L 44 426 L 44 428 L 43 429 L 43 431 L 42 432 L 42 434 L 41 435 L 41 437 L 40 438 L 40 440 L 39 441 L 39 444 L 38 445 L 38 447 L 37 448 L 37 450 L 36 451 L 36 453 L 35 454 L 35 456 L 34 457 L 34 459 L 33 460 L 33 462 L 32 463 L 32 465 L 31 466 L 31 468 L 30 469 L 30 471 L 29 472 L 29 475 L 28 476 L 28 478 L 27 479 L 27 481 L 26 482 L 26 484 L 25 485 L 25 487 L 24 488 L 24 490 L 23 491 L 23 493 L 22 494 L 22 496 L 21 497 L 21 499 L 20 500 L 20 502 L 19 503 L 19 506 L 18 507 L 18 509 L 17 510 L 17 512 L 16 513 L 16 515 L 15 516 L 15 518 L 14 519 L 14 521 L 13 522 L 13 524 L 12 525 L 12 527 L 11 528 L 11 530 L 10 531 L 10 533 L 9 534 L 9 537 L 8 538 L 8 540 L 7 541 L 7 543 L 6 544 L 6 546 L 5 547 L 5 549 L 4 550 L 4 552 L 3 553 L 3 555 L 2 556 L 2 560 L 1 561 L 1 565 L 2 566 L 2 570 L 3 571 L 3 573 L 4 574 L 4 575 L 6 577 L 6 578 L 10 582 L 11 582 L 12 583 L 13 583 L 14 584 L 15 584 L 16 585 L 17 585 L 18 586 L 21 586 L 22 587 L 24 587 L 25 588 L 27 588 L 28 589 L 30 589 L 31 590 L 33 590 L 34 591 L 36 591 L 37 592 L 39 592 L 40 593 L 42 593 L 43 594 L 45 594 L 46 595 L 48 595 L 49 596 L 52 596 L 53 597 L 55 597 L 56 598 L 58 598 L 59 599 L 61 599 L 62 600 L 64 600 L 65 601 L 66 601 L 67 602 L 68 602 L 70 604 L 71 604 L 74 607 L 75 607 L 77 609 L 77 610 L 80 613 L 80 614 L 82 616 L 82 617 L 83 618 L 83 619 L 84 620 L 84 622 L 85 623 L 85 627 L 86 628 L 86 635 L 85 636 L 85 645 L 84 646 L 84 657 L 83 658 L 83 674 L 82 675 L 82 732 L 83 733 L 83 749 L 84 750 L 84 761 L 85 762 L 85 771 L 86 772 L 86 773 L 85 774 L 85 780 L 84 781 L 84 783 L 83 784 L 83 786 L 82 787 L 82 788 L 80 790 L 80 791 L 71 800 L 70 800 L 68 802 L 67 802 L 66 803 L 65 803 L 64 804 L 62 804 L 61 805 L 59 805 L 58 806 L 56 806 L 55 807 L 53 807 L 52 808 L 50 808 L 49 809 L 47 809 L 46 810 L 44 810 L 43 811 L 41 811 L 40 812 L 38 812 L 37 813 L 34 813 L 33 814 L 31 814 L 30 815 L 28 815 L 27 816 L 25 816 L 24 817 L 22 817 L 21 818 L 19 818 L 18 819 L 16 819 L 15 820 L 14 820 L 13 821 L 12 821 L 11 822 L 10 822 L 4 828 L 4 829 L 2 831 L 2 833 L 1 834 L 1 836 L 0 837 L 0 846 L 1 847 L 1 850 L 2 851 L 2 853 L 3 854 L 3 856 L 4 857 L 4 859 L 5 860 L 5 862 L 6 863 L 6 865 L 7 866 L 7 868 L 8 869 L 8 871 L 9 872 L 9 874 L 10 875 L 10 877 L 11 878 L 11 880 L 12 881 L 12 883 L 13 884 L 13 886 L 14 887 L 14 889 L 15 890 L 15 892 L 16 893 L 16 895 L 17 896 L 17 898 L 18 899 L 18 901 L 19 902 L 19 904 L 20 905 L 20 907 L 21 908 L 21 910 L 22 911 L 22 913 L 23 914 L 23 916 L 24 917 L 24 919 L 25 920 L 25 922 L 26 923 L 26 925 L 27 926 L 27 928 L 28 929 L 28 931 L 29 932 L 29 934 L 30 935 L 30 937 L 31 938 L 31 940 L 32 941 L 32 943 L 33 944 L 33 946 L 34 947 L 34 949 L 35 950 L 35 952 L 36 953 L 36 955 L 37 956 L 37 958 L 38 959 L 38 961 L 39 962 L 39 964 L 40 965 L 40 967 L 41 968 L 41 970 L 42 971 L 42 973 L 43 974 L 43 976 L 44 977 L 44 979 L 45 980 L 45 982 L 46 983 L 46 985 L 47 986 L 47 988 L 48 989 L 48 991 L 49 992 L 49 994 L 50 995 L 50 997 L 52 999 L 52 1000 L 57 1005 L 58 1005 L 59 1006 L 60 1006 L 61 1007 L 62 1007 L 63 1008 L 65 1008 L 66 1009 L 76 1009 L 77 1008 L 79 1008 L 80 1007 L 82 1007 L 83 1006 L 85 1006 L 86 1005 L 88 1005 L 89 1004 L 91 1004 L 92 1003 L 94 1003 L 95 1002 L 97 1002 L 98 1001 L 100 1001 L 101 1000 L 103 1000 L 104 999 L 106 999 L 107 998 L 109 998 L 110 997 L 112 997 L 113 996 L 115 996 L 116 995 L 118 995 L 119 994 L 122 994 L 123 993 L 125 993 L 126 992 L 130 992 L 131 991 L 137 991 L 138 992 L 142 992 L 143 993 L 145 993 L 146 994 L 147 994 L 148 995 L 149 995 L 150 996 L 151 996 L 153 998 L 154 998 L 161 1005 L 161 1006 L 163 1008 L 163 1009 L 164 1010 L 164 1011 L 165 1012 L 165 1013 L 167 1015 L 167 1016 L 168 1017 L 168 1018 L 170 1020 L 170 1021 L 171 1022 L 171 1023 L 173 1025 L 173 1026 L 174 1027 L 174 1028 L 176 1030 L 176 1031 L 178 1033 L 178 1034 L 180 1036 L 180 1037 L 182 1039 L 182 1040 L 183 1041 L 183 1042 L 185 1044 L 185 1045 L 188 1048 L 188 1049 L 190 1051 L 190 1052 L 192 1054 L 192 1055 L 194 1057 L 194 1058 L 197 1061 L 197 1062 L 200 1065 L 200 1066 L 202 1068 L 202 1069 L 205 1072 L 205 1073 L 208 1076 L 208 1077 L 212 1081 L 212 1082 L 216 1086 L 216 1087 L 220 1091 L 220 1092 L 225 1097 L 225 1098 L 231 1104 L 231 1105 L 238 1112 L 238 1113 L 249 1124 L 249 1125 L 259 1135 L 259 1137 L 256 1140 L 256 1141 L 254 1143 L 254 1144 L 251 1147 L 251 1148 L 249 1150 L 249 1151 L 246 1154 L 246 1155 L 244 1157 L 244 1158 L 242 1160 L 242 1161 L 239 1164 L 239 1165 L 237 1167 L 237 1168 L 234 1171 L 234 1172 L 232 1174 L 232 1175 L 229 1178 L 229 1179 L 227 1181 L 227 1182 L 224 1185 L 224 1186 L 222 1188 L 222 1189 L 219 1192 L 219 1193 L 217 1195 L 217 1196 L 215 1198 L 215 1199 L 213 1201 L 213 1203 L 212 1204 L 212 1207 L 211 1208 L 211 1214 L 212 1215 L 212 1219 L 213 1220 L 213 1221 L 214 1222 L 214 1223 L 215 1224 L 215 1225 L 221 1231 L 222 1231 L 224 1233 L 225 1233 L 228 1236 L 229 1236 L 231 1238 L 232 1238 L 235 1241 L 236 1241 L 238 1243 L 239 1243 L 241 1245 L 242 1245 L 245 1248 L 246 1248 L 248 1250 L 249 1250 L 252 1253 L 253 1253 L 255 1255 L 256 1255 L 259 1258 L 260 1258 L 262 1260 L 263 1260 L 266 1263 L 267 1263 L 269 1265 L 270 1265 L 273 1268 L 274 1268 L 276 1270 L 277 1270 L 280 1273 L 281 1273 L 283 1275 L 284 1275 L 287 1278 L 288 1278 L 290 1280 L 291 1280 L 294 1283 L 295 1283 L 297 1285 L 298 1285 L 301 1288 L 302 1288 L 304 1290 L 305 1290 L 308 1293 L 309 1293 L 311 1295 L 312 1295 L 314 1297 L 315 1297 L 318 1300 L 319 1300 L 321 1302 L 322 1302 L 325 1305 L 326 1305 L 328 1307 L 329 1307 L 332 1310 L 333 1310 L 335 1312 L 336 1312 L 339 1315 L 340 1315 L 342 1317 L 343 1317 L 345 1319 L 346 1319 L 348 1321 L 350 1321 L 351 1322 L 355 1322 L 356 1323 L 361 1323 L 362 1322 L 365 1322 L 366 1321 L 368 1321 L 369 1320 L 370 1320 L 372 1318 L 373 1318 L 377 1314 L 377 1313 L 379 1311 L 379 1310 L 382 1307 L 382 1306 L 384 1304 L 384 1303 L 387 1300 L 387 1299 L 389 1297 L 389 1296 L 392 1293 L 392 1292 L 394 1290 L 394 1289 L 397 1286 L 397 1285 L 399 1283 L 399 1282 L 402 1279 L 402 1278 L 404 1276 L 404 1275 L 413 1266 L 414 1266 L 416 1264 L 417 1264 L 418 1263 L 420 1263 L 421 1262 L 423 1262 L 424 1261 L 427 1261 L 428 1260 L 435 1260 L 436 1261 L 440 1261 L 441 1262 L 443 1262 L 444 1263 L 445 1263 L 446 1264 L 447 1264 L 448 1265 L 450 1265 L 451 1266 L 452 1266 L 453 1267 L 454 1267 L 455 1268 L 457 1268 L 458 1269 L 459 1269 L 460 1270 L 461 1270 L 462 1271 L 464 1271 L 465 1272 L 466 1272 L 467 1273 L 469 1273 L 470 1274 L 471 1274 L 472 1275 L 474 1275 L 475 1276 L 477 1276 L 478 1277 L 479 1277 L 480 1278 L 482 1278 L 483 1279 L 485 1279 L 486 1280 L 488 1280 L 489 1281 L 490 1281 L 491 1282 L 493 1282 L 494 1283 L 496 1283 L 497 1284 L 499 1284 L 500 1285 L 502 1285 L 503 1286 L 505 1286 L 506 1287 L 508 1287 L 509 1288 L 512 1288 L 513 1289 L 515 1289 L 516 1290 L 518 1290 L 519 1291 L 521 1291 L 522 1292 L 525 1292 L 526 1293 L 528 1293 L 529 1294 L 532 1294 L 533 1295 L 536 1295 L 537 1296 L 540 1296 L 541 1297 L 544 1297 L 545 1298 L 548 1298 L 549 1299 L 552 1299 L 553 1300 L 556 1300 L 557 1301 L 560 1301 L 561 1302 L 565 1302 L 566 1303 L 569 1303 L 570 1304 L 572 1304 L 573 1305 L 575 1305 L 576 1306 L 577 1306 L 579 1308 L 580 1308 L 588 1316 L 588 1317 L 590 1319 L 590 1320 L 591 1321 L 591 1322 L 592 1323 L 592 1324 L 593 1325 L 593 1328 L 594 1329 L 594 1389 L 595 1390 L 595 1392 L 596 1393 L 596 1394 L 598 1396 L 598 1397 L 603 1402 L 604 1402 L 605 1403 L 606 1403 L 607 1404 L 608 1404 L 609 1405 L 613 1405 L 614 1406 L 659 1406 L 660 1407 L 714 1407 L 715 1408 L 775 1408 L 776 1407 L 778 1407 L 779 1406 L 780 1406 L 781 1405 L 782 1405 L 788 1399 L 788 1398 L 789 1397 L 789 1396 L 790 1395 L 790 1394 L 791 1393 L 791 1390 L 792 1389 L 792 1344 L 793 1343 L 793 1329 L 794 1328 L 794 1326 L 795 1325 L 795 1323 L 796 1322 L 796 1321 L 797 1320 L 797 1319 L 800 1316 L 800 1315 L 806 1309 L 807 1309 L 809 1307 L 810 1307 L 811 1306 L 812 1306 L 813 1305 L 814 1305 L 815 1304 L 818 1304 L 819 1303 L 823 1303 L 824 1302 L 827 1302 L 828 1301 L 832 1301 L 833 1300 L 836 1300 L 837 1299 L 838 1299 L 837 1298 L 837 1297 L 835 1295 L 835 1294 L 833 1292 L 833 1291 L 831 1289 L 831 1288 L 829 1286 L 829 1285 L 828 1284 L 828 1283 L 826 1281 L 826 1280 L 825 1279 L 825 1278 L 824 1277 L 824 1276 L 823 1275 L 823 1274 L 822 1273 L 822 1272 L 820 1270 L 820 1269 L 819 1268 L 819 1267 L 818 1266 L 818 1264 L 817 1263 L 817 1262 L 816 1261 L 816 1260 L 815 1259 L 815 1258 L 814 1257 L 814 1256 L 813 1255 L 813 1253 L 812 1252 L 812 1251 L 811 1250 L 811 1248 L 810 1247 L 810 1246 L 809 1245 L 809 1243 L 808 1242 L 808 1240 L 807 1239 L 807 1237 L 806 1236 L 806 1234 L 805 1233 L 805 1231 L 804 1230 L 804 1228 L 803 1227 L 803 1224 L 802 1223 L 802 1220 L 801 1219 L 801 1216 L 800 1215 L 800 1212 L 799 1211 L 799 1207 L 798 1206 L 798 1202 L 797 1201 L 797 1195 L 796 1194 L 796 1188 L 795 1187 L 795 1185 L 793 1185 L 792 1186 L 788 1186 L 787 1187 L 783 1187 L 782 1188 L 777 1188 L 776 1189 L 771 1189 L 770 1190 L 764 1190 L 763 1191 L 757 1191 L 756 1192 L 749 1192 L 748 1193 L 739 1193 L 738 1194 L 725 1194 L 724 1195 L 664 1195 L 663 1194 L 651 1194 L 650 1193 L 641 1193 L 640 1192 L 633 1192 L 632 1191 L 625 1191 L 624 1190 L 618 1190 L 617 1189 L 612 1189 L 611 1188 L 607 1188 L 606 1187 L 601 1187 L 600 1186 L 596 1186 L 595 1185 L 592 1185 L 591 1184 L 587 1184 L 586 1183 L 583 1183 L 582 1182 L 578 1182 L 577 1181 L 574 1181 L 573 1180 L 571 1180 L 570 1179 L 567 1179 L 566 1178 L 563 1178 L 562 1177 L 560 1177 L 559 1176 L 556 1176 L 555 1175 L 553 1175 L 552 1174 L 549 1174 L 548 1173 L 546 1173 L 545 1172 L 543 1172 L 542 1171 L 540 1171 L 539 1170 L 537 1170 L 536 1169 L 534 1169 L 533 1168 L 531 1168 L 530 1167 L 529 1167 L 528 1166 L 526 1166 L 525 1165 L 523 1165 L 522 1164 L 520 1164 L 519 1163 L 518 1163 L 517 1162 L 515 1162 L 514 1161 L 513 1161 L 512 1160 L 510 1160 L 509 1159 L 508 1159 L 507 1158 L 505 1158 L 504 1157 L 503 1157 L 502 1156 L 501 1156 L 500 1155 L 498 1155 L 497 1154 L 496 1154 L 495 1153 L 494 1153 L 493 1152 L 492 1152 L 491 1151 L 490 1151 L 489 1150 L 487 1150 L 486 1149 L 485 1149 L 484 1148 L 483 1148 L 482 1147 L 481 1147 L 480 1146 L 479 1146 L 478 1145 L 477 1145 L 476 1144 L 475 1144 L 474 1143 L 473 1143 L 472 1142 L 471 1142 L 470 1141 L 469 1141 L 468 1140 L 467 1140 L 466 1139 L 465 1139 L 464 1138 L 463 1138 L 461 1136 L 460 1136 L 459 1135 L 458 1135 L 457 1134 L 456 1134 L 455 1133 L 454 1133 L 452 1131 L 451 1131 L 450 1130 L 449 1130 L 448 1129 L 447 1129 L 445 1127 L 444 1127 L 443 1126 L 442 1126 L 440 1124 L 439 1124 L 438 1123 L 437 1123 L 435 1121 L 434 1121 L 432 1119 L 431 1119 L 430 1118 L 429 1118 L 427 1116 L 426 1116 L 424 1114 L 423 1114 L 421 1112 L 420 1112 L 418 1110 L 417 1110 L 415 1108 L 414 1108 L 411 1105 L 410 1105 L 408 1103 L 407 1103 L 404 1100 L 403 1100 L 400 1097 L 399 1097 L 396 1094 L 395 1094 L 392 1091 L 391 1091 L 387 1087 L 386 1087 L 381 1082 L 380 1082 L 375 1077 L 374 1077 L 366 1069 L 365 1069 L 328 1032 L 328 1031 L 321 1024 L 321 1023 L 316 1018 L 316 1017 L 311 1012 L 311 1011 L 307 1007 L 307 1006 L 304 1003 L 304 1002 L 301 999 L 301 998 L 298 995 L 298 994 L 295 991 L 295 990 L 292 987 L 292 986 L 290 984 L 290 983 L 288 981 L 288 980 L 286 978 L 286 977 L 284 975 L 284 974 L 282 972 L 282 971 L 280 969 L 280 968 L 278 966 L 278 965 L 277 964 L 277 963 L 275 961 L 275 960 L 273 958 L 273 957 L 272 956 L 272 955 L 270 953 L 270 952 L 269 951 L 269 950 L 268 949 L 268 948 L 266 946 L 266 945 L 265 944 L 265 943 L 264 942 L 264 941 L 262 939 L 262 938 L 261 937 L 261 936 L 260 935 L 260 934 L 259 933 L 259 932 L 258 931 L 258 930 L 257 929 L 257 928 L 256 927 L 256 926 L 255 925 L 255 924 L 254 923 L 254 922 L 253 921 L 253 920 L 252 919 L 252 918 L 251 917 L 251 916 L 250 915 L 250 914 L 249 913 L 249 912 L 248 911 L 248 910 L 247 909 L 247 908 L 246 907 L 246 905 L 245 904 L 245 903 L 244 902 L 244 901 L 243 900 L 243 899 L 242 898 L 242 896 L 241 895 L 241 894 L 240 893 L 240 892 L 239 891 L 239 889 L 238 888 L 238 887 L 237 886 L 237 884 L 236 883 L 236 882 L 235 881 L 235 879 L 234 878 L 234 876 L 233 875 L 233 874 L 232 873 L 232 871 L 231 870 L 231 868 L 230 867 L 230 865 L 229 864 L 229 862 L 228 861 L 228 859 L 227 858 L 227 856 L 226 855 L 226 853 L 225 852 L 225 850 L 224 849 L 224 847 L 223 846 L 223 844 L 222 843 L 222 840 L 221 839 L 221 837 L 220 836 L 220 833 L 219 832 L 219 829 L 218 828 L 218 825 L 217 824 L 217 821 L 216 820 L 216 817 L 215 816 L 215 813 L 214 812 L 214 809 L 213 808 L 213 804 L 212 803 L 212 799 L 211 798 L 211 794 L 210 793 L 210 788 L 209 787 L 209 782 L 208 781 L 208 776 L 207 775 L 207 768 L 206 767 L 206 760 L 205 759 L 205 751 L 204 750 L 204 739 L 203 738 L 203 719 L 202 718 L 202 689 L 203 688 L 203 669 L 204 668 L 204 657 L 205 656 L 205 648 L 206 647 L 206 640 L 207 639 L 207 632 L 208 631 L 208 626 L 209 625 L 209 620 L 210 619 L 210 614 L 211 613 L 211 609 L 212 608 L 212 604 L 213 603 L 213 599 L 214 598 L 214 595 L 215 594 L 215 591 L 216 590 L 216 586 L 217 585 L 217 582 L 218 581 L 218 579 L 219 578 L 219 575 L 220 574 L 220 571 L 221 570 L 221 568 L 222 567 L 222 564 L 223 563 L 223 561 L 224 560 L 224 558 L 225 557 L 225 555 L 226 554 L 226 551 L 227 550 L 227 548 L 228 547 L 228 546 L 229 545 L 229 543 L 230 542 L 230 540 L 231 539 L 231 537 L 232 536 L 232 534 L 233 533 L 233 532 L 234 531 L 234 529 L 235 528 L 235 526 L 236 525 L 236 524 L 237 523 L 237 521 L 238 520 L 238 519 L 239 518 L 239 516 L 240 515 L 240 514 L 241 513 L 241 512 L 242 511 L 242 509 L 243 508 L 243 507 L 244 506 L 244 505 L 245 504 L 245 502 L 246 501 L 246 500 L 247 499 L 247 498 L 248 497 L 248 496 L 249 495 L 249 494 L 250 493 L 250 492 L 251 491 L 251 490 L 252 489 L 252 488 L 253 487 L 253 486 L 254 485 L 254 484 L 255 483 L 255 482 L 256 481 L 256 480 L 257 479 L 257 478 L 258 477 L 258 476 L 259 475 L 259 474 L 260 473 L 260 472 L 261 471 L 261 470 L 262 469 L 262 468 L 264 466 L 264 465 L 265 464 L 265 463 L 266 462 L 266 461 L 267 460 L 267 459 L 269 457 L 269 456 L 270 455 L 270 454 L 272 452 L 272 451 L 273 450 L 273 449 L 275 447 L 275 446 L 276 445 L 276 444 L 278 442 L 278 441 L 280 439 L 280 438 L 282 436 L 282 435 L 284 433 L 284 432 L 286 430 L 286 429 L 288 427 L 288 426 L 290 424 L 290 423 L 292 421 L 292 420 L 295 417 L 295 416 L 297 414 L 297 413 L 300 410 L 300 409 L 303 406 L 303 405 L 307 401 L 307 400 L 311 396 L 311 395 L 315 391 L 315 390 L 320 385 L 320 384 L 327 377 L 327 376 L 341 362 L 341 361 L 352 350 L 353 350 L 366 337 L 367 337 L 374 330 L 375 330 L 381 324 L 382 324 L 386 320 L 387 320 L 391 316 L 392 316 L 395 313 L 396 313 L 400 309 L 401 309 L 403 307 L 404 307 L 407 304 L 408 304 L 411 301 L 412 301 L 414 299 L 415 299 L 417 297 L 418 297 L 420 295 L 421 295 L 423 293 L 424 293 L 426 291 L 427 291 L 429 289 L 430 289 L 432 287 L 433 287 L 434 286 L 435 286 L 437 284 L 438 284 L 440 282 L 441 282 L 442 281 L 443 281 L 445 279 L 446 279 L 447 278 L 448 278 L 449 277 L 450 277 L 452 275 L 453 275 L 454 274 L 455 274 L 456 273 L 457 273 L 459 271 L 460 271 L 461 270 L 462 270 L 463 269 L 464 269 L 465 268 L 466 268 L 467 267 L 468 267 L 469 266 L 470 266 L 471 265 L 472 265 L 473 264 L 474 264 L 475 263 L 476 263 L 477 262 L 478 262 L 479 261 L 480 261 L 481 260 L 482 260 L 483 259 L 484 259 L 485 258 L 486 258 L 487 257 L 488 257 L 489 256 L 490 256 L 491 255 L 493 255 L 494 254 L 495 254 L 496 253 L 497 253 L 498 252 L 499 252 L 500 251 L 502 251 L 503 250 L 504 250 L 505 249 L 507 249 L 508 248 L 509 248 L 510 247 L 511 247 L 512 246 L 514 246 L 515 245 L 517 245 L 518 244 L 519 244 L 520 243 L 522 243 L 523 242 L 525 242 L 526 241 L 527 241 L 528 240 L 530 240 L 531 239 L 533 239 L 534 238 L 536 238 L 537 237 L 539 237 L 540 236 L 542 236 L 543 235 L 545 235 L 546 234 L 548 234 L 549 233 L 551 233 L 552 232 L 555 232 L 556 231 L 558 231 L 559 230 L 562 230 L 563 229 L 565 229 L 566 228 L 569 228 L 570 227 L 573 227 L 574 226 L 577 226 L 578 225 L 581 225 L 582 224 L 585 224 L 586 223 L 590 223 L 591 222 L 595 222 L 596 221 L 600 221 L 601 220 L 605 220 L 606 219 L 611 219 L 612 218 L 617 218 L 618 217 L 623 217 L 624 216 L 631 216 L 632 215 L 639 215 L 640 214 L 649 214 L 650 213 L 661 213 L 662 212 L 685 212 L 686 211 L 702 211 L 703 212 L 726 212 L 727 213 L 739 213 L 740 214 L 749 214 L 750 215 L 757 215 L 758 216 L 764 216 L 765 217 L 771 217 L 772 218 L 777 218 L 778 219 L 783 219 L 784 220 L 788 220 L 789 221 L 793 221 L 794 222 L 798 222 L 799 223 L 802 223 L 803 224 L 806 224 L 807 225 L 811 225 L 812 226 L 815 226 L 816 227 L 819 227 L 820 228 L 822 228 L 823 229 L 826 229 L 827 230 L 829 230 L 830 231 L 833 231 L 834 232 L 836 232 L 837 233 L 839 233 L 840 234 L 843 234 L 844 235 L 846 235 L 847 236 L 849 236 L 850 237 L 852 237 L 853 238 L 855 238 L 856 239 L 858 239 L 859 240 L 860 240 L 861 241 L 863 241 L 864 242 L 866 242 L 867 243 L 868 243 L 869 244 L 871 244 L 872 245 L 874 245 L 875 246 L 876 246 L 877 247 L 879 247 L 880 248 L 881 248 L 882 249 L 883 249 L 884 250 L 886 250 L 887 251 L 888 251 L 889 252 L 890 252 L 891 253 L 893 253 L 894 254 L 895 254 L 896 255 L 897 255 L 898 256 L 899 256 L 900 257 L 901 257 L 902 258 L 904 258 L 905 259 L 906 259 L 907 260 L 908 260 L 909 261 L 910 261 L 911 262 L 912 262 L 913 263 L 914 263 L 915 264 L 916 264 L 917 265 L 918 265 L 919 266 L 920 266 L 921 267 L 922 267 L 923 268 L 924 268 L 926 270 L 927 270 L 928 271 L 929 271 L 930 272 L 931 272 L 932 273 L 933 273 L 935 275 L 936 275 L 937 276 L 938 276 L 939 277 L 940 277 L 942 279 L 943 279 L 944 280 L 945 280 L 947 282 L 948 282 L 949 283 L 950 283 L 952 285 L 953 285 L 954 286 L 955 286 L 957 288 L 958 288 L 960 290 L 961 290 L 963 292 L 964 292 L 966 294 L 967 294 L 969 296 L 970 296 L 972 298 L 973 298 L 975 300 L 976 300 L 978 302 L 979 302 L 982 305 L 983 305 L 986 308 L 987 308 L 990 311 L 991 311 L 994 314 L 995 314 L 999 318 L 1000 318 L 1004 322 L 1005 322 L 1009 326 L 1010 326 L 1016 332 L 1017 332 L 1026 341 L 1027 341 L 1057 371 L 1057 372 L 1065 380 L 1065 381 L 1071 387 L 1071 388 L 1076 393 L 1076 394 L 1080 398 L 1080 399 L 1084 403 L 1084 404 L 1087 407 L 1087 408 L 1090 411 L 1090 412 L 1093 415 L 1093 416 L 1095 418 L 1095 419 L 1098 422 L 1098 423 L 1100 425 L 1100 426 L 1102 428 L 1102 429 L 1104 431 L 1104 432 L 1106 434 L 1106 435 L 1108 437 L 1108 438 L 1110 440 L 1110 441 L 1111 442 L 1111 443 L 1113 445 L 1113 446 L 1115 448 L 1115 449 L 1116 450 L 1116 451 L 1118 453 L 1118 454 L 1119 455 L 1119 456 L 1121 458 L 1121 459 L 1122 460 L 1122 461 L 1123 462 L 1123 463 L 1124 464 L 1124 465 L 1126 467 L 1126 468 L 1127 469 L 1127 470 L 1128 471 L 1128 472 L 1129 473 L 1129 474 L 1130 475 L 1130 476 L 1131 477 L 1131 478 L 1132 479 L 1132 480 L 1134 482 L 1134 483 L 1135 484 L 1135 485 L 1136 486 L 1136 488 L 1137 489 L 1137 490 L 1138 491 L 1138 492 L 1139 493 L 1139 494 L 1140 495 L 1140 496 L 1141 497 L 1141 498 L 1142 499 L 1142 500 L 1143 501 L 1143 502 L 1144 503 L 1144 505 L 1145 506 L 1145 507 L 1146 508 L 1146 509 L 1147 510 L 1147 512 L 1148 513 L 1148 514 L 1149 515 L 1149 516 L 1150 517 L 1150 519 L 1151 520 L 1151 521 L 1152 522 L 1152 524 L 1153 525 L 1153 526 L 1154 527 L 1154 529 L 1155 530 L 1155 532 L 1156 533 L 1156 534 L 1157 535 L 1157 537 L 1158 538 L 1158 540 L 1159 541 L 1159 543 L 1160 544 L 1160 546 L 1161 547 L 1161 549 L 1162 550 L 1162 552 L 1163 553 L 1163 555 L 1164 556 L 1164 558 L 1165 559 L 1165 561 L 1166 562 L 1166 565 L 1167 566 L 1167 568 L 1168 569 L 1168 572 L 1169 573 L 1169 576 L 1170 577 L 1170 579 L 1171 580 L 1171 583 L 1172 584 L 1172 587 L 1173 588 L 1173 591 L 1174 592 L 1174 596 L 1175 597 L 1175 600 L 1176 601 L 1176 605 L 1177 606 L 1177 610 L 1178 611 L 1178 616 L 1179 617 L 1179 621 L 1180 622 L 1180 628 L 1181 629 L 1181 634 L 1182 635 L 1182 642 L 1183 643 L 1183 651 L 1184 652 L 1184 661 L 1185 662 L 1185 675 L 1186 676 L 1186 731 L 1185 732 L 1185 745 L 1184 746 L 1184 755 L 1183 756 L 1183 764 L 1182 765 L 1182 771 L 1181 772 L 1181 778 L 1180 779 L 1180 784 L 1179 785 L 1179 790 L 1178 791 L 1178 796 L 1177 797 L 1177 801 L 1176 802 L 1176 805 L 1175 806 L 1175 810 L 1174 811 L 1174 814 L 1173 815 L 1173 819 L 1172 820 L 1172 823 L 1171 824 L 1171 827 L 1170 828 L 1170 830 L 1169 831 L 1169 834 L 1168 835 L 1168 838 L 1167 839 L 1167 841 L 1166 842 L 1166 844 L 1165 845 L 1165 848 L 1164 849 L 1164 851 L 1163 852 L 1163 854 L 1162 855 L 1162 857 L 1161 858 L 1161 860 L 1160 861 L 1160 863 L 1159 864 L 1159 866 L 1158 867 L 1158 869 L 1157 870 L 1157 871 L 1156 872 L 1156 874 L 1155 875 L 1155 877 L 1154 878 L 1154 879 L 1153 880 L 1153 882 L 1152 883 L 1152 885 L 1151 886 L 1151 887 L 1150 888 L 1150 889 L 1149 890 L 1149 892 L 1148 893 L 1148 894 L 1147 895 L 1147 897 L 1146 898 L 1146 899 L 1145 900 L 1145 901 L 1144 902 L 1144 903 L 1143 904 L 1143 906 L 1142 907 L 1142 908 L 1141 909 L 1141 910 L 1140 911 L 1140 912 L 1139 913 L 1139 914 L 1138 915 L 1138 916 L 1137 917 L 1137 918 L 1136 919 L 1136 920 L 1135 921 L 1135 922 L 1134 923 L 1134 924 L 1133 925 L 1133 926 L 1132 927 L 1132 928 L 1131 929 L 1131 931 L 1132 931 L 1133 932 L 1135 932 L 1136 933 L 1137 933 L 1138 934 L 1139 934 L 1140 935 L 1142 935 L 1143 936 L 1144 936 L 1145 937 L 1146 937 L 1147 938 L 1148 938 L 1149 939 L 1150 939 L 1151 940 L 1152 940 L 1153 941 L 1154 941 L 1155 942 L 1156 942 L 1158 944 L 1159 944 L 1160 945 L 1161 945 L 1162 946 L 1163 946 L 1165 948 L 1166 948 L 1167 949 L 1168 949 L 1170 951 L 1171 951 L 1173 953 L 1174 953 L 1176 955 L 1177 955 L 1179 957 L 1180 957 L 1182 959 L 1183 959 L 1186 962 L 1187 962 L 1190 965 L 1191 965 L 1195 969 L 1196 969 L 1202 975 L 1203 975 L 1223 995 L 1223 996 L 1230 1003 L 1230 1004 L 1232 1006 L 1233 1005 L 1234 1005 L 1235 1004 L 1236 1004 L 1237 1003 L 1239 1003 L 1240 1002 L 1243 1002 L 1244 1001 L 1254 1001 L 1255 1002 L 1258 1002 L 1259 1003 L 1261 1003 L 1262 1004 L 1264 1004 L 1265 1005 L 1267 1005 L 1268 1006 L 1270 1006 L 1271 1007 L 1273 1007 L 1274 1008 L 1276 1008 L 1277 1009 L 1279 1009 L 1280 1010 L 1282 1010 L 1283 1011 L 1285 1011 L 1286 1012 L 1288 1012 L 1289 1013 L 1291 1013 L 1292 1014 L 1294 1014 L 1295 1015 L 1297 1015 L 1298 1016 L 1300 1016 L 1301 1017 L 1303 1017 L 1304 1018 L 1306 1018 L 1307 1019 L 1311 1019 L 1312 1020 L 1315 1020 L 1316 1019 L 1321 1019 L 1322 1018 L 1323 1018 L 1324 1017 L 1325 1017 L 1326 1016 L 1327 1016 L 1333 1010 L 1333 1009 L 1334 1008 L 1334 1007 L 1335 1006 L 1335 1005 L 1336 1004 L 1336 1002 L 1337 1001 L 1337 999 L 1338 998 L 1338 996 L 1339 995 L 1339 993 L 1340 992 L 1340 990 L 1341 989 L 1341 987 L 1342 986 L 1342 984 L 1343 983 L 1343 981 L 1344 980 L 1344 978 L 1345 977 L 1345 975 L 1346 974 L 1346 972 L 1347 971 L 1347 969 L 1348 968 L 1348 966 L 1349 965 L 1349 963 L 1350 962 L 1350 960 L 1351 959 L 1351 957 L 1352 956 L 1352 954 L 1353 953 L 1353 952 L 1354 951 L 1354 949 L 1355 948 L 1355 946 L 1356 945 L 1356 943 L 1357 942 L 1357 940 L 1358 939 L 1358 937 L 1359 936 L 1359 934 L 1360 933 L 1360 931 L 1361 930 L 1361 928 L 1362 927 L 1362 925 L 1363 924 L 1363 922 L 1364 921 L 1364 919 L 1365 918 L 1365 916 L 1366 915 L 1366 913 L 1367 912 L 1367 910 L 1368 909 L 1368 907 L 1369 906 L 1369 904 L 1370 903 L 1370 901 L 1371 900 L 1371 898 L 1372 897 L 1372 895 L 1373 894 L 1373 892 L 1374 891 L 1374 889 L 1375 888 L 1375 886 L 1376 885 L 1376 883 L 1377 882 L 1377 880 L 1378 879 L 1378 877 L 1379 876 L 1379 874 L 1380 873 L 1380 871 L 1381 870 L 1381 868 L 1382 867 L 1382 865 L 1383 864 L 1383 862 L 1384 861 L 1384 859 L 1385 858 L 1385 847 L 1384 846 L 1384 844 L 1383 843 L 1383 841 L 1381 839 L 1381 838 L 1377 834 L 1376 834 L 1374 832 L 1373 832 L 1372 831 L 1370 831 L 1369 830 L 1368 830 L 1367 829 L 1365 829 L 1364 828 L 1362 828 L 1361 827 L 1359 827 L 1358 826 L 1356 826 L 1355 825 L 1353 825 L 1352 824 L 1350 824 L 1349 823 L 1347 823 L 1346 822 L 1344 822 L 1343 821 L 1341 821 L 1340 820 L 1338 820 L 1337 819 L 1335 819 L 1334 818 L 1332 818 L 1331 817 L 1329 817 L 1328 816 L 1326 816 L 1325 815 L 1323 815 L 1322 814 L 1321 814 L 1320 813 L 1319 813 L 1317 811 L 1316 811 L 1308 803 L 1308 802 L 1306 800 L 1306 799 L 1305 798 L 1305 797 L 1304 796 L 1304 794 L 1303 793 L 1303 791 L 1302 790 L 1302 777 L 1303 776 L 1303 768 L 1304 767 L 1304 757 L 1305 756 L 1305 744 L 1306 743 L 1306 722 L 1307 721 L 1307 686 L 1306 685 L 1306 664 L 1305 663 L 1305 651 L 1304 650 L 1304 637 L 1305 636 L 1305 633 L 1306 632 L 1306 631 L 1307 630 L 1307 629 L 1308 628 L 1308 627 L 1309 626 L 1309 625 L 1311 623 L 1311 622 L 1316 617 L 1317 617 L 1320 614 L 1321 614 L 1322 613 L 1323 613 L 1324 612 L 1325 612 L 1326 611 L 1328 611 L 1329 610 L 1332 610 L 1333 609 L 1335 609 L 1336 608 L 1338 608 L 1339 607 L 1341 607 L 1342 606 L 1344 606 L 1345 605 L 1347 605 L 1348 604 L 1351 604 L 1352 603 L 1354 603 L 1355 602 L 1357 602 L 1358 601 L 1360 601 L 1361 600 L 1363 600 L 1364 599 L 1366 599 L 1367 598 L 1369 598 L 1370 597 L 1373 597 L 1374 596 L 1376 596 L 1377 595 L 1378 595 L 1379 594 L 1380 594 L 1387 587 L 1387 586 L 1388 585 L 1388 584 L 1389 583 L 1389 581 L 1390 580 L 1390 568 L 1389 567 L 1389 565 L 1388 564 L 1388 562 L 1387 561 L 1387 559 L 1386 558 L 1386 556 L 1385 555 L 1385 552 L 1384 551 L 1384 549 L 1383 548 L 1383 546 L 1382 545 L 1382 543 L 1381 542 L 1381 540 L 1380 539 L 1380 537 L 1379 536 L 1379 533 L 1378 532 L 1378 530 L 1377 529 L 1377 527 L 1376 526 L 1376 524 L 1375 523 L 1375 521 L 1374 520 L 1374 518 L 1373 517 L 1373 514 L 1372 513 L 1372 511 L 1371 510 L 1371 508 L 1370 507 L 1370 505 L 1369 504 L 1369 502 L 1368 501 L 1368 499 L 1367 498 L 1367 496 L 1366 495 L 1366 492 L 1365 491 L 1365 489 L 1364 488 L 1364 486 L 1363 485 L 1363 483 L 1362 482 L 1362 480 L 1361 479 L 1361 477 L 1360 476 L 1360 473 L 1359 472 L 1359 470 L 1358 469 L 1358 467 L 1357 466 L 1357 464 L 1356 463 L 1356 461 L 1355 460 L 1355 458 L 1354 457 L 1354 455 L 1353 454 L 1353 451 L 1352 450 L 1352 448 L 1351 447 L 1351 445 L 1350 444 L 1350 442 L 1349 441 L 1349 439 L 1348 438 L 1348 436 L 1347 435 L 1347 432 L 1346 431 L 1346 429 L 1345 428 L 1345 426 L 1344 425 L 1344 423 L 1343 422 L 1343 420 L 1342 419 L 1342 418 L 1341 417 L 1341 416 L 1335 410 L 1334 410 L 1332 408 L 1330 408 L 1329 407 L 1327 407 L 1326 406 L 1316 406 L 1315 407 L 1313 407 L 1312 408 L 1310 408 L 1309 409 L 1307 409 L 1306 410 L 1303 410 L 1302 411 L 1300 411 L 1299 412 L 1297 412 L 1296 413 L 1294 413 L 1293 414 L 1291 414 L 1290 415 L 1288 415 L 1287 416 L 1284 416 L 1283 417 L 1281 417 L 1280 418 L 1278 418 L 1277 419 L 1275 419 L 1274 420 L 1272 420 L 1271 421 L 1269 421 L 1268 422 L 1264 422 L 1263 423 L 1255 423 L 1254 422 L 1250 422 L 1249 421 L 1247 421 L 1246 420 L 1245 420 L 1244 419 L 1243 419 L 1241 417 L 1240 417 L 1231 408 L 1231 407 L 1230 406 L 1230 405 L 1228 403 L 1228 402 L 1227 401 L 1227 400 L 1226 399 L 1226 398 L 1224 396 L 1224 395 L 1223 394 L 1223 393 L 1221 391 L 1221 390 L 1220 389 L 1220 388 L 1218 386 L 1218 385 L 1217 384 L 1217 383 L 1215 381 L 1215 380 L 1214 379 L 1214 378 L 1212 376 L 1212 375 L 1210 373 L 1210 372 L 1208 370 L 1208 369 L 1206 367 L 1206 366 L 1204 364 L 1204 363 L 1202 361 L 1202 360 L 1200 358 L 1200 357 L 1198 355 L 1198 354 L 1196 352 L 1196 351 L 1193 348 L 1193 347 L 1191 345 L 1191 344 L 1188 341 L 1188 340 L 1185 337 L 1185 336 L 1182 333 L 1182 332 L 1179 329 L 1179 328 L 1175 324 L 1175 323 L 1171 319 L 1171 318 L 1167 314 L 1167 313 L 1162 308 L 1162 307 L 1156 301 L 1156 300 L 1150 294 L 1150 293 L 1148 291 L 1148 290 L 1147 289 L 1147 288 L 1146 287 L 1146 285 L 1145 284 L 1145 281 L 1144 280 L 1144 269 L 1145 268 L 1145 265 L 1146 264 L 1146 263 L 1147 262 L 1147 261 L 1148 260 L 1148 259 L 1149 258 L 1149 257 L 1151 255 L 1151 254 L 1154 251 L 1154 250 L 1156 248 L 1156 247 L 1159 244 L 1159 243 L 1162 240 L 1162 239 L 1165 236 L 1165 235 L 1167 233 L 1167 232 L 1170 229 L 1170 228 L 1173 225 L 1173 224 L 1175 222 L 1175 221 L 1178 218 L 1178 217 L 1181 214 L 1181 213 L 1182 212 L 1182 210 L 1183 209 L 1183 206 L 1184 205 L 1184 198 L 1183 197 L 1183 194 L 1182 193 L 1182 192 L 1181 191 L 1181 190 L 1180 189 L 1180 188 L 1174 182 L 1173 182 L 1170 179 L 1169 179 L 1166 176 L 1165 176 L 1163 174 L 1162 174 L 1159 171 L 1158 171 L 1155 168 L 1154 168 L 1151 165 L 1150 165 L 1148 163 L 1147 163 L 1144 160 L 1143 160 L 1140 157 L 1139 157 L 1136 154 L 1135 154 L 1133 152 L 1132 152 L 1129 149 L 1128 149 L 1125 146 L 1124 146 L 1121 143 L 1120 143 L 1118 141 L 1117 141 L 1114 138 L 1113 138 L 1110 135 L 1109 135 L 1106 132 L 1105 132 L 1103 130 L 1102 130 L 1099 127 L 1098 127 L 1095 124 L 1094 124 L 1092 122 L 1091 122 L 1088 119 L 1087 119 L 1084 116 L 1083 116 L 1080 113 L 1079 113 L 1077 111 L 1076 111 L 1073 108 L 1072 108 L 1069 105 L 1068 105 L 1065 102 L 1064 102 L 1062 100 L 1061 100 L 1058 97 L 1057 97 L 1054 94 L 1053 94 L 1051 92 L 1050 92 L 1049 91 L 1048 91 L 1047 90 L 1045 90 L 1044 89 L 1032 89 L 1031 90 L 1029 90 L 1028 91 L 1027 91 L 1026 92 L 1025 92 L 1018 99 L 1018 100 L 1015 103 L 1015 104 L 1013 106 L 1013 107 L 1010 110 L 1010 111 L 1007 114 L 1007 115 L 1004 118 L 1004 119 L 1002 121 L 1002 122 L 999 125 L 999 126 L 996 129 L 996 130 L 994 132 L 994 133 L 991 136 L 991 137 L 985 143 L 984 143 L 982 145 L 981 145 L 979 147 L 977 147 L 976 148 L 975 148 L 974 149 L 971 149 L 970 150 L 959 150 L 958 149 L 955 149 L 954 148 L 953 148 L 952 147 L 950 147 L 949 146 L 948 146 L 947 145 L 946 145 L 945 144 L 944 144 L 943 143 L 941 143 L 940 142 L 939 142 L 938 141 L 937 141 L 936 140 L 935 140 L 934 139 L 932 139 L 931 138 L 930 138 L 929 137 L 927 137 L 926 136 L 925 136 L 924 135 L 922 135 L 921 134 L 920 134 L 919 133 L 917 133 L 916 132 L 915 132 L 914 131 L 912 131 L 911 130 L 909 130 L 908 129 L 907 129 L 906 128 L 904 128 L 903 127 L 901 127 L 900 126 L 898 126 L 897 125 L 896 125 L 895 124 L 893 124 L 892 123 L 890 123 L 889 122 L 887 122 L 886 121 L 884 121 L 883 120 L 880 120 L 879 119 L 877 119 L 876 118 L 874 118 L 873 117 L 871 117 L 870 116 L 867 116 L 866 115 L 864 115 L 863 114 L 860 114 L 859 113 L 857 113 L 856 112 L 853 112 L 852 111 L 849 111 L 848 110 L 845 110 L 844 109 L 841 109 L 840 108 L 837 108 L 836 107 L 833 107 L 832 106 L 828 106 L 827 105 L 824 105 L 823 104 L 821 104 L 820 103 L 818 103 L 817 102 L 816 102 L 815 101 L 814 101 L 812 99 L 811 99 L 804 92 L 804 91 L 802 89 L 802 88 L 801 87 L 801 86 L 800 85 L 800 84 L 799 83 L 799 81 L 798 80 L 798 76 L 797 75 L 797 17 L 796 16 L 796 14 L 795 13 L 795 12 L 794 11 L 794 10 L 787 3 L 786 3 L 785 2 L 784 2 L 783 1 L 781 1 L 780 0 Z" fill="url(#blueGradient)" fill-rule="evenodd" shape-rendering="geometricPrecision"/>
</svg>
