<svg xmlns="http://www.w3.org/2000/svg" viewBox="0 0 1600 900" fill="none" aria-hidden="true">
  <defs>
    <linearGradient id="trace" x1="0" y1="0" x2="1600" y2="900" gradientUnits="userSpaceOnUse">
      <stop offset="0" stop-color="#DCEBFF" stop-opacity="0.24"/>
      <stop offset="0.5" stop-color="#C8DEFF" stop-opacity="0.34"/>
      <stop offset="1" stop-color="#EAF3FF" stop-opacity="0.28"/>
    </linearGradient>
    <linearGradient id="traceSoft" x1="1600" y1="100" x2="200" y2="820" gradientUnits="userSpaceOnUse">
      <stop offset="0" stop-color="#D7E9FF" stop-opacity="0.14"/>
      <stop offset="0.55" stop-color="#C5DBFF" stop-opacity="0.28"/>
      <stop offset="1" stop-color="#E9F3FF" stop-opacity="0.12"/>
    </linearGradient>
    <radialGradient id="nodeGlow" cx="0" cy="0" r="1" gradientUnits="userSpaceOnUse" gradientTransform="translate(0.5 0.5) rotate(90) scale(0.5)">
      <stop stop-color="#EDF6FF" stop-opacity="0.9"/>
      <stop offset="1" stop-color="#D9EAFF" stop-opacity="0"/>
    </radialGradient>
    <style>
      .t1{stroke:url(#trace);stroke-width:1.2;stroke-linecap:round;stroke-linejoin:round}
      .t2{stroke:url(#traceSoft);stroke-width:.9;stroke-linecap:round;stroke-linejoin:round}
      .t3{stroke:url(#trace);stroke-width:.7;stroke-linecap:round;stroke-dasharray:2 12}
      .n1{fill:#EAF3FF;fill-opacity:.42}
      .n2{fill:#D8E8FF;fill-opacity:.26}
      .g{fill:url(#nodeGlow);opacity:.40}
      .f1{opacity:.82}.f2{opacity:.6}.f3{opacity:.42}.f4{opacity:.28}
    </style>
  </defs>

  <g id="traces-primary">
    <path class="t1 f2" d="M64 120h120c18 0 26 8 26 22v18c0 11 6 18 17 18h86"/>
    <path class="t2 f3" d="M230 160h48c12 0 18 6 18 18v18c0 10 7 16 18 16h52"/>
    <path class="t1 f3" d="M88 318h148c20 0 30-7 40-21l24-34c9-13 19-19 40-19h106"/>
    <path class="t2 f2" d="M362 244h82c15 0 24 4 34 14l18 18c10 10 21 15 40 15h126"/>
    <path class="t1 f2" d="M1020 138h138c16 0 24 6 24 19v19c0 12 7 20 20 20h72"/>
    <path class="t2 f4" d="M1138 176h42c11 0 16 5 16 16v18c0 9 6 14 16 14h48"/>
    <path class="t1 f3" d="M1178 312h138c18 0 28 7 38 21l16 22c11 15 21 21 42 21h112"/>
    <path class="t2 f2" d="M1064 392h92c20 0 32 7 46 23l26 29c9 10 20 15 39 15h98"/>

    <path class="t1 f2" d="M244 676h128c17 0 28-6 42-20l30-31c10-11 20-17 38-17h110"/>
    <path class="t2 f3" d="M308 614h66c12 0 20-5 29-14l22-22c9-9 17-13 30-13h76"/>
    <path class="t1 f3" d="M1008 660h162c22 0 34 7 48 22l20 22c12 13 23 18 44 18h142"/>
    <path class="t2 f4" d="M1080 724h78c16 0 25 4 36 14l12 12c10 10 19 14 34 14h84"/>

    <path class="t2 f3" d="M558 104h78c24 0 38 8 54 24l24 24c12 12 26 18 48 18h96"/>
    <path class="t1 f2" d="M714 146h34c14 0 25 5 35 16l18 18c10 10 20 14 34 14h104"/>
    <path class="t2 f3" d="M610 748h66c24 0 38-8 52-23l20-23c12-13 25-19 46-19h104"/>
    <path class="t1 f2" d="M676 706h38c15 0 28-5 38-16l20-20c9-9 20-14 34-14h72"/>
  </g>

  <g id="traces-secondary">
    <path class="t3 f4" d="M472 204h110"/>
    <path class="t3 f4" d="M948 204h88"/>
    <path class="t3 f3" d="M446 482h164"/>
    <path class="t3 f3" d="M1018 502h150"/>
    <path class="t3 f3" d="M636 336h98"/>
    <path class="t3 f3" d="M842 590h114"/>
    <path class="t2 f4" d="M478 302l28-28"/>
    <path class="t2 f4" d="M1118 548l32 32"/>
    <path class="t2 f4" d="M740 262l18-18"/>
    <path class="t2 f4" d="M774 646l22 22"/>
    <path class="t2 f4" d="M132 470h72c16 0 25 5 33 15l12 15c10 12 20 17 37 17h52"/>
    <path class="t2 f4" d="M1250 460h64c13 0 23-4 31-13l14-16c10-11 19-16 34-16h54"/>
  </g>

  <g id="geometric-fragments">
    <path class="t2 f4" d="M532 522h28l16 16h34"/>
    <path class="t2 f4" d="M998 274h32l12-12h26"/>
    <path class="t2 f4" d="M706 454h18l10 10h22"/>
    <path class="t2 f4" d="M852 420h18l14-14h24"/>
    <path class="t2 f4" d="M282 226h22l10 10h24"/>
    <path class="t2 f4" d="M1240 214h22l9 9h22"/>
  </g>

  <g id="nodes">
    <circle class="n1 f2" cx="210" cy="120" r="2.2"/>
    <circle class="n2 f3" cx="296" cy="178" r="1.7"/>
    <circle class="n1 f2" cx="446" cy="244" r="2"/>
    <circle class="n2 f4" cx="496" cy="262" r="1.4"/>
    <circle class="n1 f3" cx="714" cy="146" r="2.1"/>
    <circle class="n2 f3" cx="801" cy="180" r="1.5"/>
    <circle class="n1 f2" cx="1182" cy="138" r="2.1"/>
    <circle class="n2 f4" cx="1196" cy="192" r="1.4"/>
    <circle class="n1 f3" cx="1368" cy="354" r="2.2"/>
    <circle class="n2 f4" cx="1228" cy="415" r="1.4"/>
    <circle class="n1 f3" cx="454" cy="630" r="2.1"/>
    <circle class="n2 f4" cx="380" cy="614" r="1.5"/>
    <circle class="n1 f3" cx="776" cy="670" r="2"/>
    <circle class="n2 f4" cx="680" cy="706" r="1.5"/>
    <circle class="n1 f2" cx="1170" cy="660" r="2.2"/>
    <circle class="n2 f4" cx="1230" cy="738" r="1.5"/>
  </g>

  <g id="soft-node-glow">
    <circle class="g" cx="210" cy="120" r="14"/>
    <circle class="g" cx="446" cy="244" r="12"/>
    <circle class="g" cx="714" cy="146" r="13"/>
    <circle class="g" cx="1182" cy="138" r="14"/>
    <circle class="g" cx="1368" cy="354" r="14"/>
    <circle class="g" cx="454" cy="630" r="13"/>
    <circle class="g" cx="776" cy="670" r="12"/>
    <circle class="g" cx="1170" cy="660" r="14"/>
  </g>
</svg>
